<mxfile host="app.diagrams.net" modified="2023-01-10T08:19:15.553Z" agent="5.0 (Macintosh; Intel Mac OS X 10_15_7) AppleWebKit/537.36 (KHTML, like Gecko) Chrome/108.0.0.0 Safari/537.36" etag="9TFPxm2uB-u50YmHGU5i" version="20.7.4" type="github">
  <diagram id="c_FlvSmMjd7vwiLIZ2PG" name="Page-1">
    <mxGraphModel dx="2588" dy="2076" grid="1" gridSize="10" guides="1" tooltips="1" connect="1" arrows="1" fold="1" page="1" pageScale="1" pageWidth="827" pageHeight="1169" math="0" shadow="0">
      <root>
        <mxCell id="0" />
        <mxCell id="1" parent="0" />
        <mxCell id="qD9jmZiLQEbPsk8hKH5Y-214" style="edgeStyle=orthogonalEdgeStyle;rounded=0;orthogonalLoop=1;jettySize=auto;html=1;strokeWidth=2;fontSize=15;entryX=0.5;entryY=0;entryDx=0;entryDy=0;startArrow=none;" parent="1" source="qD9jmZiLQEbPsk8hKH5Y-286" target="qD9jmZiLQEbPsk8hKH5Y-22" edge="1">
          <mxGeometry relative="1" as="geometry" />
        </mxCell>
        <mxCell id="qD9jmZiLQEbPsk8hKH5Y-7" value="" style="sketch=0;outlineConnect=0;fontColor=#232F3E;gradientColor=none;fillColor=#4D27AA;strokeColor=none;dashed=0;verticalLabelPosition=bottom;verticalAlign=top;align=center;html=1;fontSize=12;fontStyle=0;aspect=fixed;pointerEvents=1;shape=mxgraph.aws4.nat_gateway;" parent="1" vertex="1">
          <mxGeometry x="528.29" y="140" width="65" height="65" as="geometry" />
        </mxCell>
        <mxCell id="qD9jmZiLQEbPsk8hKH5Y-71" style="edgeStyle=orthogonalEdgeStyle;rounded=0;orthogonalLoop=1;jettySize=auto;html=1;strokeWidth=2;" parent="1" source="qD9jmZiLQEbPsk8hKH5Y-17" target="qD9jmZiLQEbPsk8hKH5Y-7" edge="1">
          <mxGeometry relative="1" as="geometry">
            <mxPoint x="590" y="380" as="targetPoint" />
          </mxGeometry>
        </mxCell>
        <mxCell id="qD9jmZiLQEbPsk8hKH5Y-17" value="&lt;font style=&quot;font-size: 13px;&quot;&gt;All API Communication happned through Azure API Gateway&lt;/font&gt;" style="shape=note;size=20;whiteSpace=wrap;html=1;" parent="1" vertex="1">
          <mxGeometry x="733.92" y="137.5" width="237.5" height="70" as="geometry" />
        </mxCell>
        <mxCell id="qD9jmZiLQEbPsk8hKH5Y-285" style="edgeStyle=orthogonalEdgeStyle;rounded=0;orthogonalLoop=1;jettySize=auto;html=1;exitX=0.5;exitY=1;exitDx=0;exitDy=0;entryX=0.475;entryY=0.143;entryDx=0;entryDy=0;entryPerimeter=0;strokeWidth=2;fontSize=14;" parent="1" source="qD9jmZiLQEbPsk8hKH5Y-22" target="qD9jmZiLQEbPsk8hKH5Y-29" edge="1">
          <mxGeometry relative="1" as="geometry" />
        </mxCell>
        <mxCell id="qD9jmZiLQEbPsk8hKH5Y-22" value="" style="editableCssRules=.*;shape=image;verticalLabelPosition=bottom;labelBackgroundColor=#ffffff;verticalAlign=top;aspect=fixed;imageAspect=0;image=data:image/svg+xml,PHN2ZyB4bWxucz0iaHR0cDovL3d3dy53My5vcmcvMjAwMC9zdmciIHhtbG5zOnY9Imh0dHBzOi8vdmVjdGEuaW8vbmFubyIgd2lkdGg9IjIwIiBoZWlnaHQ9IjIwIiB2aWV3Qm94PSIwIDAgMjAgMjAiPiYjeGE7CTxzdHlsZSB0eXBlPSJ0ZXh0L2NzcyI+JiN4YTsJLnN0MHtmaWxsOiM0Mjg1ZjQ7fSYjeGE7CS5zdDF7ZmlsbDojNjY5ZGY2O30mI3hhOwkuc3Qye2ZpbGw6I2FlY2JmYTt9JiN4YTsJPC9zdHlsZT4mI3hhOwk8cGF0aCBjbGFzcz0ic3QxIiBkPSJNMTYgMTBoMnY0aC0yem0tNyAwaDJ2NEg5em0tNyAwaDJ2NEgyeiIvPiYjeGE7CTxwYXRoIGNsYXNzPSJzdDAiIGQ9Ik05IDVoMnY0SDl6Ii8+JiN4YTsJPHBhdGggY2xhc3M9InN0MSIgZD0iTTIgOWgxNnYySDJ6Ii8+JiN4YTsJPHBhdGggY2xhc3M9InN0MiIgZD0iTTQgMGgxMnY1SDR6Ii8+JiN4YTsJPHBhdGggY2xhc3M9InN0MSIgZD0iTTEwIDBoNnY1aC02eiIvPiYjeGE7CTxwYXRoIGNsYXNzPSJzdDIiIGQ9Ik0xNCAxNGg2djZoLTZ6TTAgMTRoNnY2SDB6Ii8+JiN4YTsJPHBhdGggY2xhc3M9InN0MSIgZD0iTTMgMTRoM3Y2SDN6Ii8+JiN4YTsJPHBhdGggY2xhc3M9InN0MiIgZD0iTTcgMTRoNnY2SDd6Ii8+JiN4YTsJPHBhdGggY2xhc3M9InN0MSIgZD0iTTEwIDE0aDN2NmgtM3ptNyAwaDN2NmgtM3oiLz4mI3hhOzwvc3ZnPg==;" parent="1" vertex="1">
          <mxGeometry x="364" y="290" width="50" height="50" as="geometry" />
        </mxCell>
        <mxCell id="qD9jmZiLQEbPsk8hKH5Y-217" style="edgeStyle=orthogonalEdgeStyle;rounded=0;orthogonalLoop=1;jettySize=auto;html=1;exitX=0;exitY=0.5;exitDx=0;exitDy=0;exitPerimeter=0;entryX=1;entryY=0.75;entryDx=0;entryDy=0;strokeWidth=2;fontSize=13;" parent="1" source="qD9jmZiLQEbPsk8hKH5Y-26" target="qD9jmZiLQEbPsk8hKH5Y-22" edge="1">
          <mxGeometry relative="1" as="geometry" />
        </mxCell>
        <mxCell id="qD9jmZiLQEbPsk8hKH5Y-26" value="&lt;font style=&quot;font-size: 13px;&quot;&gt;Ingress is act as load balancer and proxy to all services and exposed in form of IP : 0.0.0.0.0&lt;/font&gt;" style="shape=note;size=20;whiteSpace=wrap;html=1;" parent="1" vertex="1">
          <mxGeometry x="730.84" y="250" width="249.16" height="70" as="geometry" />
        </mxCell>
        <mxCell id="qD9jmZiLQEbPsk8hKH5Y-303" style="edgeStyle=orthogonalEdgeStyle;rounded=0;orthogonalLoop=1;jettySize=auto;html=1;exitX=1;exitY=0.5;exitDx=0;exitDy=0;entryX=0.5;entryY=1;entryDx=0;entryDy=0;entryPerimeter=0;strokeWidth=2;fontSize=14;" parent="1" source="qD9jmZiLQEbPsk8hKH5Y-29" target="qD9jmZiLQEbPsk8hKH5Y-302" edge="1">
          <mxGeometry relative="1" as="geometry" />
        </mxCell>
        <mxCell id="qD9jmZiLQEbPsk8hKH5Y-29" value="" style="strokeColor=#dddddd;shadow=1;strokeWidth=3;rounded=1;absoluteArcSize=1;arcSize=2;" parent="1" vertex="1">
          <mxGeometry x="301.65" y="560" width="183" height="70" as="geometry" />
        </mxCell>
        <mxCell id="qD9jmZiLQEbPsk8hKH5Y-30" value="Kubernetes&#xa;Engine" style="editableCssRules=.*;fontColor=#999999;shape=image;verticalLabelPosition=middle;labelBackgroundColor=#ffffff;verticalAlign=middle;labelPosition=right;align=left;spacingLeft=20;part=1;points=[];imageAspect=0;image=data:image/svg+xml,PHN2ZyB4bWxucz0iaHR0cDovL3d3dy53My5vcmcvMjAwMC9zdmciIHhtbG5zOnY9Imh0dHBzOi8vdmVjdGEuaW8vbmFubyIgd2lkdGg9IjMyOS45MjU5OTcyMzE3OTM4IiBoZWlnaHQ9IjM3OC4yODQ5OTAzMTEyNzg4IiB2aWV3Qm94PSIwIDAgODcuMjkyOTk5MjY3NTc4MTIgMTAwLjA4Nzk5NzQzNjUyMzQ0Ij4mI3hhOzxzdHlsZSB0eXBlPSJ0ZXh0L2NzcyI+LnN0MCB7IGZpbGw6IG5vbmU7IH0gLnN0MSB7IGZpbGw6IHJnYigxMDIsIDE1NywgMjQ2KTsgfSAuc3QyIHsgZmlsbDogcmdiKDY2LCAxMzMsIDI0NCk7IH0gPC9zdHlsZT4mI3hhOwk8cGF0aCBjbGFzcz0ic3QwIiBkPSJNNDMuNzUxIDBMMCAyNS40NjV2Mi41ODggNDYuOTJsNDMuNzUyIDI1LjExNSA0My41NDEtMjUuMTIxVjI1LjQ3M3ptMi40MzggMTEuODUzbDMyLjEwMyAxOC43ODJWNjkuNzdMNDMuNzM5IDg5LjcwNSA5IDY5Ljc2MlYzMC42NDFsMzIuMTktMTguNzM2djE0LjE1NEwyNC41MDMgMzYuMTUzbDE5LjE3MiAxMS41MDIgMTguODg2LTExLjU1NC0xNi4zNzItMTAuMDI0eiIvPiYjeGE7CTxwYXRoIGNsYXNzPSJzdDEiIGQ9Ik0yMi4wMjUgNDAuNDk2bC4xNjYgMTkuMTQzLTEzLjI0NyA3LjMzdjIuNzQybDIuNjM3IDEuNTE0IDEyLjY0OC02Ljk5OSAxNi45NjEgMTAuNjAyVjUxLjk5M3oiLz4mI3hhOwk8cGF0aCBjbGFzcz0ic3QyIiBkPSJNNjUuMzQ0IDQwLjI2TDQ2LjE4OSA1MS45Nzl2MjIuODQ3bDE2Ljg5OS0xMC41NzYgMTIuNTM5IDYuOTc0IDIuNjA5LTEuNTA1di0yLjc2NWwtMTIuNzg0LTcuMTEyeiIvPiYjeGE7PC9zdmc+;fontSize=14;fontStyle=1" parent="qD9jmZiLQEbPsk8hKH5Y-29" vertex="1">
          <mxGeometry width="40" height="40" relative="1" as="geometry">
            <mxPoint x="17" y="15" as="offset" />
          </mxGeometry>
        </mxCell>
        <mxCell id="qD9jmZiLQEbPsk8hKH5Y-33" value="" style="edgeStyle=orthogonalEdgeStyle;rounded=0;orthogonalLoop=1;jettySize=auto;html=1;strokeWidth=2;" parent="1" source="qD9jmZiLQEbPsk8hKH5Y-31" target="qD9jmZiLQEbPsk8hKH5Y-29" edge="1">
          <mxGeometry relative="1" as="geometry" />
        </mxCell>
        <mxCell id="qD9jmZiLQEbPsk8hKH5Y-232" style="edgeStyle=orthogonalEdgeStyle;rounded=0;orthogonalLoop=1;jettySize=auto;html=1;exitX=0;exitY=0.5;exitDx=0;exitDy=0;strokeWidth=2;fontSize=18;entryX=0.441;entryY=0.99;entryDx=0;entryDy=0;entryPerimeter=0;" parent="1" source="qD9jmZiLQEbPsk8hKH5Y-31" edge="1" target="qD9jmZiLQEbPsk8hKH5Y-230">
          <mxGeometry relative="1" as="geometry">
            <mxPoint x="29.999999999999773" y="639.9999999999998" as="targetPoint" />
          </mxGeometry>
        </mxCell>
        <mxCell id="qD9jmZiLQEbPsk8hKH5Y-304" style="edgeStyle=orthogonalEdgeStyle;rounded=0;orthogonalLoop=1;jettySize=auto;html=1;exitX=0.75;exitY=0;exitDx=0;exitDy=0;entryX=0.213;entryY=1.018;entryDx=0;entryDy=0;entryPerimeter=0;strokeWidth=2;fontSize=13;" parent="1" source="qD9jmZiLQEbPsk8hKH5Y-31" target="qD9jmZiLQEbPsk8hKH5Y-68" edge="1">
          <mxGeometry relative="1" as="geometry" />
        </mxCell>
        <mxCell id="qD9jmZiLQEbPsk8hKH5Y-308" style="edgeStyle=orthogonalEdgeStyle;rounded=0;orthogonalLoop=1;jettySize=auto;html=1;exitX=1;exitY=0.5;exitDx=0;exitDy=0;strokeWidth=2;fontSize=13;" parent="1" source="qD9jmZiLQEbPsk8hKH5Y-31" target="qD9jmZiLQEbPsk8hKH5Y-329" edge="1">
          <mxGeometry relative="1" as="geometry">
            <mxPoint x="954.5714285714289" y="750.4988236369036" as="targetPoint" />
          </mxGeometry>
        </mxCell>
        <mxCell id="qD9jmZiLQEbPsk8hKH5Y-314" style="edgeStyle=orthogonalEdgeStyle;rounded=0;orthogonalLoop=1;jettySize=auto;html=1;exitX=1;exitY=0.75;exitDx=0;exitDy=0;strokeWidth=2;fontSize=13;" parent="1" source="qD9jmZiLQEbPsk8hKH5Y-31" edge="1">
          <mxGeometry relative="1" as="geometry">
            <mxPoint x="1120" y="903" as="targetPoint" />
          </mxGeometry>
        </mxCell>
        <mxCell id="qD9jmZiLQEbPsk8hKH5Y-320" style="edgeStyle=orthogonalEdgeStyle;rounded=0;orthogonalLoop=1;jettySize=auto;html=1;exitX=0.5;exitY=1;exitDx=0;exitDy=0;entryX=0.621;entryY=0.16;entryDx=0;entryDy=0;entryPerimeter=0;strokeWidth=2;fontSize=18;" parent="1" source="qD9jmZiLQEbPsk8hKH5Y-31" target="qD9jmZiLQEbPsk8hKH5Y-59" edge="1">
          <mxGeometry relative="1" as="geometry" />
        </mxCell>
        <mxCell id="qD9jmZiLQEbPsk8hKH5Y-31" value="" style="rounded=0;whiteSpace=wrap;html=1;" parent="1" vertex="1">
          <mxGeometry x="146.29999999999998" y="760" width="493.71" height="190" as="geometry" />
        </mxCell>
        <mxCell id="qD9jmZiLQEbPsk8hKH5Y-44" value="" style="sketch=0;outlineConnect=0;fontColor=#232F3E;gradientColor=none;fillColor=#2E27AD;strokeColor=none;dashed=0;verticalLabelPosition=bottom;verticalAlign=top;align=center;html=1;fontSize=12;fontStyle=0;aspect=fixed;pointerEvents=1;shape=mxgraph.aws4.rds_postgresql_instance;" parent="1" vertex="1">
          <mxGeometry x="1225" y="636.5" width="65" height="65" as="geometry" />
        </mxCell>
        <mxCell id="qD9jmZiLQEbPsk8hKH5Y-75" style="edgeStyle=orthogonalEdgeStyle;rounded=0;orthogonalLoop=1;jettySize=auto;html=1;strokeWidth=2;" parent="1" source="qD9jmZiLQEbPsk8hKH5Y-58" target="qD9jmZiLQEbPsk8hKH5Y-73" edge="1">
          <mxGeometry relative="1" as="geometry" />
        </mxCell>
        <mxCell id="qD9jmZiLQEbPsk8hKH5Y-58" value="Hyperloop Orchestration&amp;nbsp;" style="swimlane;whiteSpace=wrap;html=1;" parent="1" vertex="1">
          <mxGeometry x="150" y="1190" width="500" height="270" as="geometry" />
        </mxCell>
        <mxCell id="qD9jmZiLQEbPsk8hKH5Y-248" style="edgeStyle=orthogonalEdgeStyle;rounded=0;orthogonalLoop=1;jettySize=auto;html=1;exitX=0.75;exitY=1;exitDx=0;exitDy=0;entryX=0.5;entryY=1;entryDx=0;entryDy=0;strokeWidth=2;fontSize=12;" parent="qD9jmZiLQEbPsk8hKH5Y-58" source="qD9jmZiLQEbPsk8hKH5Y-236" target="qD9jmZiLQEbPsk8hKH5Y-242" edge="1">
          <mxGeometry relative="1" as="geometry" />
        </mxCell>
        <mxCell id="qD9jmZiLQEbPsk8hKH5Y-236" value="" style="shape=mxgraph.gcp2.doubleRect;strokeColor=#666666;shadow=1;strokeWidth=1;rounded=1;absoluteArcSize=1;arcSize=2;glass=0;dashed=1;sketch=0;fontSize=18;fillColor=#f5f5f5;fontColor=#333333;" parent="qD9jmZiLQEbPsk8hKH5Y-58" vertex="1">
          <mxGeometry x="19" y="170" width="178" height="68" as="geometry" />
        </mxCell>
        <mxCell id="qD9jmZiLQEbPsk8hKH5Y-237" value="&lt;font color=&quot;#000000&quot;&gt;Beam&lt;br&gt;&lt;/font&gt;API" style="editableCssRules=.*;html=1;fontColor=#999999;shape=image;verticalLabelPosition=middle;labelBackgroundColor=#ffffff;verticalAlign=middle;labelPosition=right;align=left;spacingLeft=20;part=1;points=[];imageAspect=0;image=data:image/svg+xml,PHN2ZyB4bWxucz0iaHR0cDovL3d3dy53My5vcmcvMjAwMC9zdmciIHhtbG5zOnY9Imh0dHBzOi8vdmVjdGEuaW8vbmFubyIgd2lkdGg9IjE4LjMwMDAwMTE0NDQwOTE4IiBoZWlnaHQ9IjE5LjgyNjUwNTY2MTAxMDc0MiIgdmlld0JveD0iLTguNzkxNTE5NjkwMDIxMjMyZS04IDAgMTguMzAwMDAxMTQ0NDA5MTggMTkuODI2NTA1NjYxMDEwNzQyIj4mI3hhOwk8c3R5bGUgdHlwZT0idGV4dC9jc3MiPiYjeGE7CS5zdDB7ZmlsbDojNDI4NWY0fSYjeGE7CS5zdDF7ZmlsbDojYWVjYmZhfSYjeGE7CS5zdDJ7ZmlsbDojNjY5ZGY2fSYjeGE7CTwvc3R5bGU+JiN4YTsJPHBhdGggY2xhc3M9InN0MCIgZD0iTTMuMDEgMTguNDlhMS41MSAxLjUxIDAgMCAxLTMgMGgwdi00LjI4YTEuNTEgMS41MSAwIDEgMSAzIDB6bTUuMTMgMGExLjUxIDEuNTEgMCAwIDEtMyAwaDB2LTQuMjhhMS41MSAxLjUxIDAgMCAxIDMgMHptNS4wNiAwYTEuNTEgMS41MSAwIDAgMS0zIDB2LTQuMjhhMS41MSAxLjUxIDAgMCAxIDMgMHptNS4wOSAwYTEuNTEgMS41MSAwIDAgMS0zIDB2LTQuMjhhMS41MSAxLjUxIDAgMSAxIDMgMHoiLz4mI3hhOwk8Y2lyY2xlIGNsYXNzPSJzdDEiIGN4PSI2LjU5IiBjeT0iOS45NyIgcj0iMS41MSIvPiYjeGE7CTxjaXJjbGUgY2xhc3M9InN0MiIgY3g9IjExLjY5IiBjeT0iOS45NyIgcj0iMS41MSIvPiYjeGE7CTxjaXJjbGUgY2xhc3M9InN0MSIgY3g9IjExLjY5IiBjeT0iNS43NCIgcj0iMS41MSIvPiYjeGE7CTxnIGNsYXNzPSJzdDIiPiYjeGE7CQk8Y2lyY2xlIGN4PSIxNi43OCIgY3k9IjkuOTciIHI9IjEuNTEiLz4mI3hhOwkJPGNpcmNsZSBjeD0iMTYuNzgiIGN5PSI1Ljc0IiByPSIxLjUxIi8+JiN4YTsJPC9nPiYjeGE7CTxjaXJjbGUgY2xhc3M9InN0MSIgY3g9IjE2Ljc4IiBjeT0iMS41MSIgcj0iMS41MSIvPiYjeGE7PC9zdmc+;rounded=0;shadow=0;glass=0;dashed=1;sketch=0;strokeColor=#000000;strokeWidth=3;fontSize=18;fillColor=#F8CECC;gradientColor=none;" parent="qD9jmZiLQEbPsk8hKH5Y-236" vertex="1">
          <mxGeometry width="30" height="30" relative="1" as="geometry">
            <mxPoint x="15" y="15" as="offset" />
          </mxGeometry>
        </mxCell>
        <mxCell id="qD9jmZiLQEbPsk8hKH5Y-243" value="" style="edgeStyle=orthogonalEdgeStyle;rounded=0;orthogonalLoop=1;jettySize=auto;html=1;strokeWidth=2;fontSize=12;" parent="qD9jmZiLQEbPsk8hKH5Y-58" source="qD9jmZiLQEbPsk8hKH5Y-234" target="qD9jmZiLQEbPsk8hKH5Y-236" edge="1">
          <mxGeometry relative="1" as="geometry" />
        </mxCell>
        <mxCell id="qD9jmZiLQEbPsk8hKH5Y-234" value="" style="shape=mxgraph.gcp2.doubleRect;strokeColor=#666666;shadow=1;strokeWidth=1;rounded=1;absoluteArcSize=1;arcSize=2;glass=0;dashed=1;sketch=0;fontSize=18;fillColor=#f5f5f5;fontColor=#333333;" parent="qD9jmZiLQEbPsk8hKH5Y-58" vertex="1">
          <mxGeometry x="67.5" y="40" width="178" height="68" as="geometry" />
        </mxCell>
        <mxCell id="qD9jmZiLQEbPsk8hKH5Y-235" value="&lt;font color=&quot;#000000&quot;&gt;Kafka&lt;br&gt;&lt;/font&gt;Consumer" style="editableCssRules=.*;html=1;fontColor=#999999;shape=image;verticalLabelPosition=middle;labelBackgroundColor=#ffffff;verticalAlign=middle;labelPosition=right;align=left;spacingLeft=20;part=1;points=[];imageAspect=0;image=data:image/svg+xml,PHN2ZyB4bWxucz0iaHR0cDovL3d3dy53My5vcmcvMjAwMC9zdmciIHhtbG5zOnY9Imh0dHBzOi8vdmVjdGEuaW8vbmFubyIgd2lkdGg9IjE4LjMwMDAwMTE0NDQwOTE4IiBoZWlnaHQ9IjE5LjgyNjUwNTY2MTAxMDc0MiIgdmlld0JveD0iLTguNzkxNTE5NjkwMDIxMjMyZS04IDAgMTguMzAwMDAxMTQ0NDA5MTggMTkuODI2NTA1NjYxMDEwNzQyIj4mI3hhOwk8c3R5bGUgdHlwZT0idGV4dC9jc3MiPiYjeGE7CS5zdDB7ZmlsbDojNDI4NWY0fSYjeGE7CS5zdDF7ZmlsbDojYWVjYmZhfSYjeGE7CS5zdDJ7ZmlsbDojNjY5ZGY2fSYjeGE7CTwvc3R5bGU+JiN4YTsJPHBhdGggY2xhc3M9InN0MCIgZD0iTTMuMDEgMTguNDlhMS41MSAxLjUxIDAgMCAxLTMgMGgwdi00LjI4YTEuNTEgMS41MSAwIDEgMSAzIDB6bTUuMTMgMGExLjUxIDEuNTEgMCAwIDEtMyAwaDB2LTQuMjhhMS41MSAxLjUxIDAgMCAxIDMgMHptNS4wNiAwYTEuNTEgMS41MSAwIDAgMS0zIDB2LTQuMjhhMS41MSAxLjUxIDAgMCAxIDMgMHptNS4wOSAwYTEuNTEgMS41MSAwIDAgMS0zIDB2LTQuMjhhMS41MSAxLjUxIDAgMSAxIDMgMHoiLz4mI3hhOwk8Y2lyY2xlIGNsYXNzPSJzdDEiIGN4PSI2LjU5IiBjeT0iOS45NyIgcj0iMS41MSIvPiYjeGE7CTxjaXJjbGUgY2xhc3M9InN0MiIgY3g9IjExLjY5IiBjeT0iOS45NyIgcj0iMS41MSIvPiYjeGE7CTxjaXJjbGUgY2xhc3M9InN0MSIgY3g9IjExLjY5IiBjeT0iNS43NCIgcj0iMS41MSIvPiYjeGE7CTxnIGNsYXNzPSJzdDIiPiYjeGE7CQk8Y2lyY2xlIGN4PSIxNi43OCIgY3k9IjkuOTciIHI9IjEuNTEiLz4mI3hhOwkJPGNpcmNsZSBjeD0iMTYuNzgiIGN5PSI1Ljc0IiByPSIxLjUxIi8+JiN4YTsJPC9nPiYjeGE7CTxjaXJjbGUgY2xhc3M9InN0MSIgY3g9IjE2Ljc4IiBjeT0iMS41MSIgcj0iMS41MSIvPiYjeGE7PC9zdmc+;rounded=0;shadow=0;glass=0;dashed=1;sketch=0;strokeColor=#000000;strokeWidth=3;fontSize=18;fillColor=#F8CECC;gradientColor=none;" parent="qD9jmZiLQEbPsk8hKH5Y-234" vertex="1">
          <mxGeometry width="30" height="30" relative="1" as="geometry">
            <mxPoint x="15" y="15" as="offset" />
          </mxGeometry>
        </mxCell>
        <mxCell id="qD9jmZiLQEbPsk8hKH5Y-245" value="" style="edgeStyle=orthogonalEdgeStyle;rounded=0;orthogonalLoop=1;jettySize=auto;html=1;strokeWidth=2;fontSize=12;" parent="qD9jmZiLQEbPsk8hKH5Y-58" source="qD9jmZiLQEbPsk8hKH5Y-238" target="qD9jmZiLQEbPsk8hKH5Y-234" edge="1">
          <mxGeometry relative="1" as="geometry" />
        </mxCell>
        <mxCell id="qD9jmZiLQEbPsk8hKH5Y-246" value="" style="edgeStyle=orthogonalEdgeStyle;rounded=0;orthogonalLoop=1;jettySize=auto;html=1;strokeWidth=2;fontSize=12;" parent="qD9jmZiLQEbPsk8hKH5Y-58" source="qD9jmZiLQEbPsk8hKH5Y-238" target="qD9jmZiLQEbPsk8hKH5Y-241" edge="1">
          <mxGeometry relative="1" as="geometry">
            <Array as="points">
              <mxPoint x="379" y="147" />
              <mxPoint x="280" y="147" />
              <mxPoint x="280" y="200" />
            </Array>
          </mxGeometry>
        </mxCell>
        <mxCell id="qD9jmZiLQEbPsk8hKH5Y-238" value="" style="shape=mxgraph.gcp2.doubleRect;strokeColor=#666666;shadow=1;strokeWidth=1;rounded=1;absoluteArcSize=1;arcSize=2;glass=0;dashed=1;sketch=0;fontSize=18;fillColor=#f5f5f5;fontColor=#333333;" parent="qD9jmZiLQEbPsk8hKH5Y-58" vertex="1">
          <mxGeometry x="290" y="40" width="178" height="68" as="geometry" />
        </mxCell>
        <mxCell id="qD9jmZiLQEbPsk8hKH5Y-239" value="&lt;font color=&quot;#000000&quot;&gt;Kafka&lt;/font&gt;&lt;br&gt;Producer" style="editableCssRules=.*;html=1;fontColor=#999999;shape=image;verticalLabelPosition=middle;labelBackgroundColor=#ffffff;verticalAlign=middle;labelPosition=right;align=left;spacingLeft=20;part=1;points=[];imageAspect=0;image=data:image/svg+xml,PHN2ZyB4bWxucz0iaHR0cDovL3d3dy53My5vcmcvMjAwMC9zdmciIHhtbG5zOnY9Imh0dHBzOi8vdmVjdGEuaW8vbmFubyIgd2lkdGg9IjE4LjMwMDAwMTE0NDQwOTE4IiBoZWlnaHQ9IjE5LjgyNjUwNTY2MTAxMDc0MiIgdmlld0JveD0iLTguNzkxNTE5NjkwMDIxMjMyZS04IDAgMTguMzAwMDAxMTQ0NDA5MTggMTkuODI2NTA1NjYxMDEwNzQyIj4mI3hhOwk8c3R5bGUgdHlwZT0idGV4dC9jc3MiPiYjeGE7CS5zdDB7ZmlsbDojNDI4NWY0fSYjeGE7CS5zdDF7ZmlsbDojYWVjYmZhfSYjeGE7CS5zdDJ7ZmlsbDojNjY5ZGY2fSYjeGE7CTwvc3R5bGU+JiN4YTsJPHBhdGggY2xhc3M9InN0MCIgZD0iTTMuMDEgMTguNDlhMS41MSAxLjUxIDAgMCAxLTMgMGgwdi00LjI4YTEuNTEgMS41MSAwIDEgMSAzIDB6bTUuMTMgMGExLjUxIDEuNTEgMCAwIDEtMyAwaDB2LTQuMjhhMS41MSAxLjUxIDAgMCAxIDMgMHptNS4wNiAwYTEuNTEgMS41MSAwIDAgMS0zIDB2LTQuMjhhMS41MSAxLjUxIDAgMCAxIDMgMHptNS4wOSAwYTEuNTEgMS41MSAwIDAgMS0zIDB2LTQuMjhhMS41MSAxLjUxIDAgMSAxIDMgMHoiLz4mI3hhOwk8Y2lyY2xlIGNsYXNzPSJzdDEiIGN4PSI2LjU5IiBjeT0iOS45NyIgcj0iMS41MSIvPiYjeGE7CTxjaXJjbGUgY2xhc3M9InN0MiIgY3g9IjExLjY5IiBjeT0iOS45NyIgcj0iMS41MSIvPiYjeGE7CTxjaXJjbGUgY2xhc3M9InN0MSIgY3g9IjExLjY5IiBjeT0iNS43NCIgcj0iMS41MSIvPiYjeGE7CTxnIGNsYXNzPSJzdDIiPiYjeGE7CQk8Y2lyY2xlIGN4PSIxNi43OCIgY3k9IjkuOTciIHI9IjEuNTEiLz4mI3hhOwkJPGNpcmNsZSBjeD0iMTYuNzgiIGN5PSI1Ljc0IiByPSIxLjUxIi8+JiN4YTsJPC9nPiYjeGE7CTxjaXJjbGUgY2xhc3M9InN0MSIgY3g9IjE2Ljc4IiBjeT0iMS41MSIgcj0iMS41MSIvPiYjeGE7PC9zdmc+;rounded=0;shadow=0;glass=0;dashed=1;sketch=0;strokeColor=#000000;strokeWidth=3;fontSize=18;fillColor=#F8CECC;gradientColor=none;" parent="qD9jmZiLQEbPsk8hKH5Y-238" vertex="1">
          <mxGeometry width="30" height="30" relative="1" as="geometry">
            <mxPoint x="15" y="15" as="offset" />
          </mxGeometry>
        </mxCell>
        <mxCell id="qD9jmZiLQEbPsk8hKH5Y-240" value="" style="shape=mxgraph.gcp2.doubleRect;strokeColor=#666666;shadow=1;strokeWidth=1;rounded=1;absoluteArcSize=1;arcSize=2;glass=0;dashed=1;sketch=0;fontSize=18;fillColor=#f5f5f5;fontColor=#333333;" parent="qD9jmZiLQEbPsk8hKH5Y-58" vertex="1">
          <mxGeometry x="300" y="170" width="178" height="68" as="geometry" />
        </mxCell>
        <mxCell id="qD9jmZiLQEbPsk8hKH5Y-241" value="&lt;font color=&quot;#000000&quot;&gt;Beam&lt;br&gt;&lt;/font&gt;API&amp;nbsp;" style="editableCssRules=.*;html=1;fontColor=#999999;shape=image;verticalLabelPosition=middle;labelBackgroundColor=#ffffff;verticalAlign=middle;labelPosition=right;align=left;spacingLeft=20;part=1;points=[];imageAspect=0;image=data:image/svg+xml,PHN2ZyB4bWxucz0iaHR0cDovL3d3dy53My5vcmcvMjAwMC9zdmciIHhtbG5zOnY9Imh0dHBzOi8vdmVjdGEuaW8vbmFubyIgd2lkdGg9IjE4LjMwMDAwMTE0NDQwOTE4IiBoZWlnaHQ9IjE5LjgyNjUwNTY2MTAxMDc0MiIgdmlld0JveD0iLTguNzkxNTE5NjkwMDIxMjMyZS04IDAgMTguMzAwMDAxMTQ0NDA5MTggMTkuODI2NTA1NjYxMDEwNzQyIj4mI3hhOwk8c3R5bGUgdHlwZT0idGV4dC9jc3MiPiYjeGE7CS5zdDB7ZmlsbDojNDI4NWY0fSYjeGE7CS5zdDF7ZmlsbDojYWVjYmZhfSYjeGE7CS5zdDJ7ZmlsbDojNjY5ZGY2fSYjeGE7CTwvc3R5bGU+JiN4YTsJPHBhdGggY2xhc3M9InN0MCIgZD0iTTMuMDEgMTguNDlhMS41MSAxLjUxIDAgMCAxLTMgMGgwdi00LjI4YTEuNTEgMS41MSAwIDEgMSAzIDB6bTUuMTMgMGExLjUxIDEuNTEgMCAwIDEtMyAwaDB2LTQuMjhhMS41MSAxLjUxIDAgMCAxIDMgMHptNS4wNiAwYTEuNTEgMS41MSAwIDAgMS0zIDB2LTQuMjhhMS41MSAxLjUxIDAgMCAxIDMgMHptNS4wOSAwYTEuNTEgMS41MSAwIDAgMS0zIDB2LTQuMjhhMS41MSAxLjUxIDAgMSAxIDMgMHoiLz4mI3hhOwk8Y2lyY2xlIGNsYXNzPSJzdDEiIGN4PSI2LjU5IiBjeT0iOS45NyIgcj0iMS41MSIvPiYjeGE7CTxjaXJjbGUgY2xhc3M9InN0MiIgY3g9IjExLjY5IiBjeT0iOS45NyIgcj0iMS41MSIvPiYjeGE7CTxjaXJjbGUgY2xhc3M9InN0MSIgY3g9IjExLjY5IiBjeT0iNS43NCIgcj0iMS41MSIvPiYjeGE7CTxnIGNsYXNzPSJzdDIiPiYjeGE7CQk8Y2lyY2xlIGN4PSIxNi43OCIgY3k9IjkuOTciIHI9IjEuNTEiLz4mI3hhOwkJPGNpcmNsZSBjeD0iMTYuNzgiIGN5PSI1Ljc0IiByPSIxLjUxIi8+JiN4YTsJPC9nPiYjeGE7CTxjaXJjbGUgY2xhc3M9InN0MSIgY3g9IjE2Ljc4IiBjeT0iMS41MSIgcj0iMS41MSIvPiYjeGE7PC9zdmc+;rounded=0;shadow=0;glass=0;dashed=1;sketch=0;strokeColor=#000000;strokeWidth=3;fontSize=18;fillColor=#F8CECC;gradientColor=none;" parent="qD9jmZiLQEbPsk8hKH5Y-240" vertex="1">
          <mxGeometry width="30" height="30" relative="1" as="geometry">
            <mxPoint x="15" y="15" as="offset" />
          </mxGeometry>
        </mxCell>
        <mxCell id="qD9jmZiLQEbPsk8hKH5Y-244" value="" style="edgeStyle=orthogonalEdgeStyle;rounded=0;orthogonalLoop=1;jettySize=auto;html=1;strokeWidth=2;fontSize=12;" parent="qD9jmZiLQEbPsk8hKH5Y-58" source="qD9jmZiLQEbPsk8hKH5Y-242" target="qD9jmZiLQEbPsk8hKH5Y-241" edge="1">
          <mxGeometry relative="1" as="geometry" />
        </mxCell>
        <mxCell id="qD9jmZiLQEbPsk8hKH5Y-247" style="edgeStyle=orthogonalEdgeStyle;rounded=0;orthogonalLoop=1;jettySize=auto;html=1;entryX=0.75;entryY=0;entryDx=0;entryDy=0;strokeWidth=2;fontSize=12;" parent="qD9jmZiLQEbPsk8hKH5Y-58" source="qD9jmZiLQEbPsk8hKH5Y-242" target="qD9jmZiLQEbPsk8hKH5Y-236" edge="1">
          <mxGeometry relative="1" as="geometry" />
        </mxCell>
        <mxCell id="qD9jmZiLQEbPsk8hKH5Y-242" value="" style="label;whiteSpace=wrap;html=1;align=center;verticalAlign=bottom;spacingLeft=0;spacingBottom=4;imageAlign=center;imageVerticalAlign=top;image=img/clipart/Gear_128x128.png;rounded=0;shadow=0;glass=0;dashed=1;sketch=0;strokeColor=#6c8ebf;strokeWidth=3;fontSize=18;fillColor=#dae8fc;dashPattern=1 1;" parent="qD9jmZiLQEbPsk8hKH5Y-58" vertex="1">
          <mxGeometry x="215" y="130" width="70" height="50" as="geometry" />
        </mxCell>
        <mxCell id="qD9jmZiLQEbPsk8hKH5Y-59" value="" style="sketch=0;outlineConnect=0;fontColor=#232F3E;gradientColor=none;fillColor=#B0084D;strokeColor=none;dashed=0;verticalLabelPosition=bottom;verticalAlign=top;align=center;html=1;fontSize=12;fontStyle=0;aspect=fixed;pointerEvents=1;shape=mxgraph.aws4.queue;" parent="1" vertex="1">
          <mxGeometry x="341.51" y="1000" width="82.98" height="50" as="geometry" />
        </mxCell>
        <mxCell id="qD9jmZiLQEbPsk8hKH5Y-68" value="&lt;font style=&quot;font-size: 14px;&quot;&gt;This is Highly scalable micro service Architecture , Consisted of serverale&amp;nbsp; api and communicated via Azure API Gateway.&lt;/font&gt;" style="shape=note;size=20;whiteSpace=wrap;html=1;fillColor=#f5f5f5;fontColor=#333333;strokeColor=#666666;strokeWidth=2;" parent="1" vertex="1">
          <mxGeometry x="680" y="520" width="290" height="80" as="geometry" />
        </mxCell>
        <mxCell id="qD9jmZiLQEbPsk8hKH5Y-74" value="" style="edgeStyle=orthogonalEdgeStyle;rounded=0;orthogonalLoop=1;jettySize=auto;html=1;strokeWidth=2;startArrow=none;" parent="1" source="qD9jmZiLQEbPsk8hKH5Y-99" target="qD9jmZiLQEbPsk8hKH5Y-73" edge="1">
          <mxGeometry relative="1" as="geometry" />
        </mxCell>
        <mxCell id="0YC_CVqzoOfl5CDFWD0c-24" style="edgeStyle=orthogonalEdgeStyle;rounded=0;orthogonalLoop=1;jettySize=auto;html=1;exitX=0;exitY=0.5;exitDx=0;exitDy=0;entryX=0;entryY=0.5;entryDx=0;entryDy=0;entryPerimeter=0;strokeWidth=2;fontSize=13;" edge="1" parent="1" source="qD9jmZiLQEbPsk8hKH5Y-72" target="0YC_CVqzoOfl5CDFWD0c-23">
          <mxGeometry relative="1" as="geometry" />
        </mxCell>
        <mxCell id="qD9jmZiLQEbPsk8hKH5Y-72" value="Streaming &amp;amp; Batch System" style="swimlane;horizontal=0;whiteSpace=wrap;html=1;strokeWidth=3;" parent="1" vertex="1">
          <mxGeometry x="-560" y="1149" width="220" height="194.5" as="geometry" />
        </mxCell>
        <mxCell id="qD9jmZiLQEbPsk8hKH5Y-90" value="" style="outlineConnect=0;dashed=0;verticalLabelPosition=bottom;verticalAlign=top;align=center;html=1;shape=mxgraph.aws3.message;fillColor=#D9A741;gradientColor=none;strokeWidth=3;fontSize=16;" parent="qD9jmZiLQEbPsk8hKH5Y-72" vertex="1">
          <mxGeometry x="160" y="72.5" width="42" height="49.5" as="geometry" />
        </mxCell>
        <mxCell id="qD9jmZiLQEbPsk8hKH5Y-91" value="Message" style="sketch=0;outlineConnect=0;fontColor=#232F3E;gradientColor=none;strokeColor=#232F3E;fillColor=#ffffff;dashed=0;verticalLabelPosition=bottom;verticalAlign=top;align=center;html=1;fontSize=12;fontStyle=0;aspect=fixed;shape=mxgraph.aws4.resourceIcon;resIcon=mxgraph.aws4.message;strokeWidth=3;" parent="qD9jmZiLQEbPsk8hKH5Y-72" vertex="1">
          <mxGeometry x="100" y="67.25" width="60" height="60" as="geometry" />
        </mxCell>
        <mxCell id="qD9jmZiLQEbPsk8hKH5Y-92" value="" style="outlineConnect=0;dashed=0;verticalLabelPosition=bottom;verticalAlign=top;align=center;html=1;shape=mxgraph.aws3.message;fillColor=#D9A741;gradientColor=none;strokeWidth=3;fontSize=16;" parent="qD9jmZiLQEbPsk8hKH5Y-72" vertex="1">
          <mxGeometry x="58" y="72.5" width="42" height="49.5" as="geometry" />
        </mxCell>
        <mxCell id="qD9jmZiLQEbPsk8hKH5Y-93" value="Message" style="sketch=0;outlineConnect=0;fontColor=#232F3E;gradientColor=none;strokeColor=#232F3E;fillColor=#ffffff;dashed=0;verticalLabelPosition=bottom;verticalAlign=top;align=center;html=1;fontSize=12;fontStyle=0;aspect=fixed;shape=mxgraph.aws4.resourceIcon;resIcon=mxgraph.aws4.message;strokeWidth=3;" parent="qD9jmZiLQEbPsk8hKH5Y-72" vertex="1">
          <mxGeometry x="49" y="127.25" width="60" height="60" as="geometry" />
        </mxCell>
        <mxCell id="qD9jmZiLQEbPsk8hKH5Y-94" value="" style="outlineConnect=0;dashed=0;verticalLabelPosition=bottom;verticalAlign=top;align=center;html=1;shape=mxgraph.aws3.message;fillColor=#D9A741;gradientColor=none;strokeWidth=3;fontSize=16;" parent="qD9jmZiLQEbPsk8hKH5Y-72" vertex="1">
          <mxGeometry x="109" y="132.5" width="42" height="49.5" as="geometry" />
        </mxCell>
        <mxCell id="qD9jmZiLQEbPsk8hKH5Y-95" value="Message" style="sketch=0;outlineConnect=0;fontColor=#232F3E;gradientColor=none;strokeColor=#232F3E;fillColor=#ffffff;dashed=0;verticalLabelPosition=bottom;verticalAlign=top;align=center;html=1;fontSize=12;fontStyle=0;aspect=fixed;shape=mxgraph.aws4.resourceIcon;resIcon=mxgraph.aws4.message;strokeWidth=3;" parent="qD9jmZiLQEbPsk8hKH5Y-72" vertex="1">
          <mxGeometry x="147" y="127.25" width="60" height="60" as="geometry" />
        </mxCell>
        <mxCell id="qD9jmZiLQEbPsk8hKH5Y-96" value="" style="outlineConnect=0;dashed=0;verticalLabelPosition=bottom;verticalAlign=top;align=center;html=1;shape=mxgraph.aws3.message;fillColor=#D9A741;gradientColor=none;strokeWidth=3;fontSize=16;" parent="qD9jmZiLQEbPsk8hKH5Y-72" vertex="1">
          <mxGeometry x="109" y="17.75" width="42" height="49.5" as="geometry" />
        </mxCell>
        <mxCell id="qD9jmZiLQEbPsk8hKH5Y-97" value="Message" style="sketch=0;outlineConnect=0;fontColor=#232F3E;gradientColor=none;strokeColor=#232F3E;fillColor=#ffffff;dashed=0;verticalLabelPosition=bottom;verticalAlign=top;align=center;html=1;fontSize=12;fontStyle=0;aspect=fixed;shape=mxgraph.aws4.resourceIcon;resIcon=mxgraph.aws4.message;strokeWidth=3;" parent="qD9jmZiLQEbPsk8hKH5Y-72" vertex="1">
          <mxGeometry x="49" y="12.5" width="60" height="60" as="geometry" />
        </mxCell>
        <mxCell id="qD9jmZiLQEbPsk8hKH5Y-98" value="Message" style="sketch=0;outlineConnect=0;fontColor=#232F3E;gradientColor=none;strokeColor=#232F3E;fillColor=#ffffff;dashed=0;verticalLabelPosition=bottom;verticalAlign=top;align=center;html=1;fontSize=12;fontStyle=0;aspect=fixed;shape=mxgraph.aws4.resourceIcon;resIcon=mxgraph.aws4.message;strokeWidth=3;" parent="qD9jmZiLQEbPsk8hKH5Y-72" vertex="1">
          <mxGeometry x="160" y="12.5" width="60" height="60" as="geometry" />
        </mxCell>
        <mxCell id="qD9jmZiLQEbPsk8hKH5Y-73" value="" style="sketch=0;outlineConnect=0;fontColor=#232F3E;gradientColor=none;fillColor=#B0084D;strokeColor=none;dashed=0;verticalLabelPosition=bottom;verticalAlign=top;align=center;html=1;fontSize=12;fontStyle=0;aspect=fixed;pointerEvents=1;shape=mxgraph.aws4.queue;" parent="1" vertex="1">
          <mxGeometry x="-83" y="1271.75" width="82.98" height="50" as="geometry" />
        </mxCell>
        <mxCell id="qD9jmZiLQEbPsk8hKH5Y-76" value="" style="strokeWidth=1;outlineConnect=0;dashed=0;align=center;html=1;fontSize=8;shape=mxgraph.eip.dataChannel;verticalLabelPosition=bottom;labelBackgroundColor=#ffffff;verticalAlign=top;" parent="1" vertex="1">
          <mxGeometry x="-153.71" y="1220" width="170" height="20" as="geometry" />
        </mxCell>
        <mxCell id="0YC_CVqzoOfl5CDFWD0c-35" style="edgeStyle=orthogonalEdgeStyle;rounded=0;orthogonalLoop=1;jettySize=auto;html=1;exitX=1;exitY=0.5;exitDx=0;exitDy=0;entryX=0.385;entryY=0.667;entryDx=0;entryDy=0;entryPerimeter=0;strokeWidth=2;fontSize=15;" edge="1" parent="1" source="qD9jmZiLQEbPsk8hKH5Y-80" target="qD9jmZiLQEbPsk8hKH5Y-99">
          <mxGeometry relative="1" as="geometry" />
        </mxCell>
        <mxCell id="qD9jmZiLQEbPsk8hKH5Y-80" value="&lt;font style=&quot;font-size: 15px;&quot;&gt;Legacy (Spark) Batch System&amp;nbsp;&lt;/font&gt;" style="label;whiteSpace=wrap;html=1;image=img/clipart/Gear_128x128.png;strokeWidth=2;" parent="1" vertex="1">
          <mxGeometry x="-610" y="890" width="247" height="60" as="geometry" />
        </mxCell>
        <mxCell id="qD9jmZiLQEbPsk8hKH5Y-86" value="" style="endArrow=classic;html=1;rounded=0;strokeWidth=2;fontSize=16;startArrow=none;entryX=0.095;entryY=-0.009;entryDx=0;entryDy=0;entryPerimeter=0;" parent="1" source="qD9jmZiLQEbPsk8hKH5Y-87" target="qD9jmZiLQEbPsk8hKH5Y-58" edge="1">
          <mxGeometry width="50" height="50" relative="1" as="geometry">
            <mxPoint x="130" y="1160" as="sourcePoint" />
            <mxPoint x="240" y="1160" as="targetPoint" />
            <Array as="points">
              <mxPoint x="200" y="1105" />
            </Array>
          </mxGeometry>
        </mxCell>
        <mxCell id="qD9jmZiLQEbPsk8hKH5Y-87" value="" style="shape=image;html=1;verticalLabelPosition=bottom;verticalAlign=top;imageAspect=0;image=img/clipart/Gear_128x128.png;strokeWidth=3;fontSize=16;" parent="1" vertex="1">
          <mxGeometry x="-11.510000000000009" y="1085" width="40" height="41" as="geometry" />
        </mxCell>
        <mxCell id="qD9jmZiLQEbPsk8hKH5Y-88" value="" style="endArrow=none;html=1;rounded=0;strokeWidth=2;fontSize=16;exitX=0;exitY=0;exitDx=160;exitDy=0;exitPerimeter=0;" parent="1" source="qD9jmZiLQEbPsk8hKH5Y-76" target="qD9jmZiLQEbPsk8hKH5Y-87" edge="1">
          <mxGeometry width="50" height="50" relative="1" as="geometry">
            <mxPoint x="19.999999999999773" y="1159.2903225806454" as="sourcePoint" />
            <mxPoint x="240" y="1160" as="targetPoint" />
          </mxGeometry>
        </mxCell>
        <mxCell id="qD9jmZiLQEbPsk8hKH5Y-89" value="Stream &amp;amp; Batch&amp;nbsp;" style="text;html=1;align=center;verticalAlign=middle;resizable=0;points=[];autosize=1;strokeColor=none;fillColor=none;fontSize=16;" parent="1" vertex="1">
          <mxGeometry x="-111.51" y="1343.5" width="140" height="30" as="geometry" />
        </mxCell>
        <mxCell id="0YC_CVqzoOfl5CDFWD0c-37" style="edgeStyle=orthogonalEdgeStyle;rounded=0;orthogonalLoop=1;jettySize=auto;html=1;entryX=0.432;entryY=1.122;entryDx=0;entryDy=0;entryPerimeter=0;strokeWidth=2;fontSize=15;" edge="1" parent="1" source="qD9jmZiLQEbPsk8hKH5Y-100" target="qD9jmZiLQEbPsk8hKH5Y-99">
          <mxGeometry relative="1" as="geometry" />
        </mxCell>
        <mxCell id="qD9jmZiLQEbPsk8hKH5Y-100" value="&lt;font style=&quot;font-size: 15px;&quot;&gt;We have combined legacy batch with new third party sources as one stream API and processed from socket &amp;amp; RPC calls&amp;nbsp; or quartz&amp;nbsp;&lt;/font&gt;" style="shape=note;strokeWidth=2;fontSize=14;size=20;whiteSpace=wrap;html=1;fillColor=#fff2cc;strokeColor=#d6b656;fontColor=#666600;" parent="1" vertex="1">
          <mxGeometry x="-1030" y="995" width="340" height="80" as="geometry" />
        </mxCell>
        <mxCell id="qD9jmZiLQEbPsk8hKH5Y-199" style="edgeStyle=orthogonalEdgeStyle;rounded=0;orthogonalLoop=1;jettySize=auto;html=1;exitX=0.5;exitY=1;exitDx=0;exitDy=0;entryX=0.466;entryY=0;entryDx=0;entryDy=0;entryPerimeter=0;strokeWidth=2;fontSize=14;" parent="1" source="qD9jmZiLQEbPsk8hKH5Y-103" target="qD9jmZiLQEbPsk8hKH5Y-58" edge="1">
          <mxGeometry relative="1" as="geometry" />
        </mxCell>
        <mxCell id="qD9jmZiLQEbPsk8hKH5Y-103" value="" style="shape=image;html=1;verticalAlign=top;verticalLabelPosition=bottom;labelBackgroundColor=#ffffff;imageAspect=0;aspect=fixed;image=https://cdn1.iconfinder.com/data/icons/material-core/23/https-128.png" parent="1" vertex="1">
          <mxGeometry x="370.5" y="1093" width="25" height="25" as="geometry" />
        </mxCell>
        <mxCell id="qD9jmZiLQEbPsk8hKH5Y-104" value="" style="endArrow=none;html=1;rounded=0;strokeWidth=2;" parent="1" source="qD9jmZiLQEbPsk8hKH5Y-59" target="qD9jmZiLQEbPsk8hKH5Y-103" edge="1">
          <mxGeometry width="50" height="50" relative="1" as="geometry">
            <mxPoint x="384.4055812273523" y="989.9810653753025" as="sourcePoint" />
            <mxPoint x="384" y="1110" as="targetPoint" />
          </mxGeometry>
        </mxCell>
        <mxCell id="qD9jmZiLQEbPsk8hKH5Y-226" style="edgeStyle=orthogonalEdgeStyle;rounded=0;orthogonalLoop=1;jettySize=auto;html=1;exitX=0.5;exitY=1;exitDx=0;exitDy=0;strokeWidth=2;fontSize=14;entryX=0.89;entryY=-0.004;entryDx=0;entryDy=0;entryPerimeter=0;startArrow=none;" parent="1" source="qD9jmZiLQEbPsk8hKH5Y-315" target="qD9jmZiLQEbPsk8hKH5Y-58" edge="1">
          <mxGeometry relative="1" as="geometry">
            <mxPoint x="650" y="1260" as="targetPoint" />
          </mxGeometry>
        </mxCell>
        <mxCell id="qD9jmZiLQEbPsk8hKH5Y-318" style="edgeStyle=orthogonalEdgeStyle;rounded=0;orthogonalLoop=1;jettySize=auto;html=1;exitX=1;exitY=0.5;exitDx=0;exitDy=0;entryX=0;entryY=0;entryDx=312;entryDy=65;entryPerimeter=0;strokeWidth=2;fontSize=13;" parent="1" source="qD9jmZiLQEbPsk8hKH5Y-112" target="qD9jmZiLQEbPsk8hKH5Y-317" edge="1">
          <mxGeometry relative="1" as="geometry" />
        </mxCell>
        <mxCell id="qD9jmZiLQEbPsk8hKH5Y-112" value="" style="rounded=0;whiteSpace=wrap;html=1;strokeWidth=0;fontSize=16;fillColor=#f5f5f5;strokeColor=#666666;fontColor=#333333;" parent="1" vertex="1">
          <mxGeometry x="1122" y="830" width="528" height="90" as="geometry" />
        </mxCell>
        <mxCell id="qD9jmZiLQEbPsk8hKH5Y-114" value="" style="points=[];aspect=fixed;html=1;align=center;shadow=0;dashed=0;image;image=img/lib/allied_telesis/security/DVS_Surveillance_Monitor.svg;strokeWidth=0;fontSize=16;" parent="1" vertex="1">
          <mxGeometry x="1150" y="830" width="52.5" height="75" as="geometry" />
        </mxCell>
        <mxCell id="qD9jmZiLQEbPsk8hKH5Y-116" value="" style="sketch=0;aspect=fixed;pointerEvents=1;shadow=0;dashed=0;html=1;strokeColor=none;labelPosition=center;verticalLabelPosition=bottom;verticalAlign=top;align=center;fillColor=#00188D;shape=mxgraph.mscae.enterprise.performance_monitor;strokeWidth=0;fontSize=16;" parent="1" vertex="1">
          <mxGeometry x="1241" y="841" width="80.56" height="58" as="geometry" />
        </mxCell>
        <mxCell id="qD9jmZiLQEbPsk8hKH5Y-117" value="" style="points=[];aspect=fixed;html=1;align=center;shadow=0;dashed=0;image;image=img/lib/allied_telesis/security/DVS_Surveillance_Monitor.svg;strokeWidth=0;fontSize=16;" parent="1" vertex="1">
          <mxGeometry x="1359.75" y="837.5" width="52.5" height="75" as="geometry" />
        </mxCell>
        <mxCell id="qD9jmZiLQEbPsk8hKH5Y-127" value="" style="rounded=0;whiteSpace=wrap;html=1;shadow=0;glass=0;sketch=0;strokeColor=#d79b00;strokeWidth=0;fontSize=16;fillColor=#ffe6cc;" parent="1" vertex="1">
          <mxGeometry x="505.79" y="1839" width="255.63" height="100" as="geometry" />
        </mxCell>
        <mxCell id="qD9jmZiLQEbPsk8hKH5Y-128" value="" style="sketch=0;points=[[0,0,0],[0.25,0,0],[0.5,0,0],[0.75,0,0],[1,0,0],[0,1,0],[0.25,1,0],[0.5,1,0],[0.75,1,0],[1,1,0],[0,0.25,0],[0,0.5,0],[0,0.75,0],[1,0.25,0],[1,0.5,0],[1,0.75,0]];outlineConnect=0;fontColor=#232F3E;gradientColor=#4D72F3;gradientDirection=north;fillColor=#3334B9;strokeColor=#ffffff;dashed=0;verticalLabelPosition=bottom;verticalAlign=top;align=center;html=1;fontSize=12;fontStyle=0;aspect=fixed;shape=mxgraph.aws4.resourceIcon;resIcon=mxgraph.aws4.managed_apache_cassandra_service;rounded=1;shadow=0;glass=0;strokeWidth=0;" parent="1" vertex="1">
          <mxGeometry x="523.78" y="1865" width="54" height="54" as="geometry" />
        </mxCell>
        <mxCell id="qD9jmZiLQEbPsk8hKH5Y-130" value="" style="sketch=0;points=[[0,0,0],[0.25,0,0],[0.5,0,0],[0.75,0,0],[1,0,0],[0,1,0],[0.25,1,0],[0.5,1,0],[0.75,1,0],[1,1,0],[0,0.25,0],[0,0.5,0],[0,0.75,0],[1,0.25,0],[1,0.5,0],[1,0.75,0]];outlineConnect=0;fontColor=#232F3E;gradientColor=#4D72F3;gradientDirection=north;fillColor=#3334B9;strokeColor=#ffffff;dashed=0;verticalLabelPosition=bottom;verticalAlign=top;align=center;html=1;fontSize=12;fontStyle=0;aspect=fixed;shape=mxgraph.aws4.resourceIcon;resIcon=mxgraph.aws4.managed_apache_cassandra_service;rounded=1;shadow=0;glass=0;strokeWidth=0;" parent="1" vertex="1">
          <mxGeometry x="606.1599999999999" y="1865" width="54" height="54" as="geometry" />
        </mxCell>
        <mxCell id="qD9jmZiLQEbPsk8hKH5Y-131" value="" style="sketch=0;points=[[0,0,0],[0.25,0,0],[0.5,0,0],[0.75,0,0],[1,0,0],[0,1,0],[0.25,1,0],[0.5,1,0],[0.75,1,0],[1,1,0],[0,0.25,0],[0,0.5,0],[0,0.75,0],[1,0.25,0],[1,0.5,0],[1,0.75,0]];outlineConnect=0;fontColor=#232F3E;gradientColor=#4D72F3;gradientDirection=north;fillColor=#3334B9;strokeColor=#ffffff;dashed=0;verticalLabelPosition=bottom;verticalAlign=top;align=center;html=1;fontSize=12;fontStyle=0;aspect=fixed;shape=mxgraph.aws4.resourceIcon;resIcon=mxgraph.aws4.managed_apache_cassandra_service;rounded=1;shadow=0;glass=0;strokeWidth=0;" parent="1" vertex="1">
          <mxGeometry x="683.1499999999999" y="1863" width="56" height="56" as="geometry" />
        </mxCell>
        <mxCell id="qD9jmZiLQEbPsk8hKH5Y-133" value="" style="rounded=0;whiteSpace=wrap;html=1;shadow=0;glass=0;sketch=0;strokeWidth=0;fontSize=16;" parent="1" vertex="1">
          <mxGeometry x="35.79" y="1839" width="91" height="100" as="geometry" />
        </mxCell>
        <mxCell id="qD9jmZiLQEbPsk8hKH5Y-134" value="" style="sketch=0;points=[[0,0,0],[0.25,0,0],[0.5,0,0],[0.75,0,0],[1,0,0],[0,1,0],[0.25,1,0],[0.5,1,0],[0.75,1,0],[1,1,0],[0,0.25,0],[0,0.5,0],[0,0.75,0],[1,0.25,0],[1,0.5,0],[1,0.75,0]];outlineConnect=0;fontColor=#232F3E;gradientColor=#4D72F3;gradientDirection=north;fillColor=#3334B9;strokeColor=#ffffff;dashed=0;verticalLabelPosition=bottom;verticalAlign=top;align=center;html=1;fontSize=12;fontStyle=0;aspect=fixed;shape=mxgraph.aws4.resourceIcon;resIcon=mxgraph.aws4.managed_apache_cassandra_service;rounded=1;shadow=0;glass=0;strokeWidth=0;" parent="1" vertex="1">
          <mxGeometry x="55.79" y="1855" width="59" height="59" as="geometry" />
        </mxCell>
        <mxCell id="qD9jmZiLQEbPsk8hKH5Y-138" value="" style="endArrow=classic;startArrow=none;html=1;rounded=0;strokeWidth=2;fontSize=16;entryX=0;entryY=0.5;entryDx=0;entryDy=0;" parent="1" source="qD9jmZiLQEbPsk8hKH5Y-135" target="qD9jmZiLQEbPsk8hKH5Y-127" edge="1">
          <mxGeometry width="50" height="50" relative="1" as="geometry">
            <mxPoint x="205.79" y="1889" as="sourcePoint" />
            <mxPoint x="435.79" y="1889" as="targetPoint" />
          </mxGeometry>
        </mxCell>
        <mxCell id="qD9jmZiLQEbPsk8hKH5Y-135" value="Replication" style="rounded=1;whiteSpace=wrap;html=1;shadow=0;glass=0;sketch=0;strokeWidth=0;fontSize=16;fillColor=#f8cecc;strokeColor=#b85450;" parent="1" vertex="1">
          <mxGeometry x="265.79" y="1876.5" width="98.01" height="25" as="geometry" />
        </mxCell>
        <mxCell id="qD9jmZiLQEbPsk8hKH5Y-139" value="" style="endArrow=none;startArrow=classic;html=1;rounded=0;strokeWidth=2;fontSize=16;exitX=1;exitY=0.5;exitDx=0;exitDy=0;" parent="1" source="qD9jmZiLQEbPsk8hKH5Y-133" target="qD9jmZiLQEbPsk8hKH5Y-135" edge="1">
          <mxGeometry width="50" height="50" relative="1" as="geometry">
            <mxPoint x="205.79" y="1889" as="sourcePoint" />
            <mxPoint x="435.79" y="1889" as="targetPoint" />
          </mxGeometry>
        </mxCell>
        <mxCell id="qD9jmZiLQEbPsk8hKH5Y-142" value="Read Only Replica&amp;nbsp;" style="text;html=1;align=center;verticalAlign=middle;resizable=0;points=[];autosize=1;strokeColor=none;fillColor=none;fontSize=16;strokeWidth=2;" parent="1" vertex="1">
          <mxGeometry x="550" y="1940" width="160" height="30" as="geometry" />
        </mxCell>
        <mxCell id="qD9jmZiLQEbPsk8hKH5Y-143" value="Primary Server" style="text;html=1;align=center;verticalAlign=middle;resizable=0;points=[];autosize=1;strokeColor=none;fillColor=none;fontSize=16;" parent="1" vertex="1">
          <mxGeometry x="16.290000000000006" y="1940" width="130" height="30" as="geometry" />
        </mxCell>
        <mxCell id="qD9jmZiLQEbPsk8hKH5Y-144" value="" style="shape=image;html=1;verticalAlign=top;verticalLabelPosition=bottom;labelBackgroundColor=#ffffff;imageAspect=0;aspect=fixed;image=https://cdn2.iconfinder.com/data/icons/whcompare-isometric-web-hosting-servers/50/database-cache-128.png;rounded=1;shadow=0;glass=0;sketch=0;strokeColor=#000000;strokeWidth=2;fontSize=16;fillColor=#F8CECC;gradientColor=none;" parent="1" vertex="1">
          <mxGeometry x="510.79" y="1689" width="60" height="60" as="geometry" />
        </mxCell>
        <mxCell id="qD9jmZiLQEbPsk8hKH5Y-249" style="edgeStyle=orthogonalEdgeStyle;rounded=0;orthogonalLoop=1;jettySize=auto;html=1;exitX=0.5;exitY=0;exitDx=0;exitDy=0;strokeWidth=2;fontSize=12;" parent="1" source="qD9jmZiLQEbPsk8hKH5Y-145" edge="1">
          <mxGeometry relative="1" as="geometry">
            <mxPoint x="385.16666666666674" y="1460" as="targetPoint" />
          </mxGeometry>
        </mxCell>
        <mxCell id="qD9jmZiLQEbPsk8hKH5Y-145" value="Cassandra Client&amp;nbsp;" style="rounded=1;whiteSpace=wrap;html=1;shadow=0;glass=0;sketch=0;strokeColor=#82b366;strokeWidth=2;fontSize=16;fillColor=#d5e8d4;dashed=1;" parent="1" vertex="1">
          <mxGeometry x="304.79" y="1569" width="161" height="50" as="geometry" />
        </mxCell>
        <mxCell id="qD9jmZiLQEbPsk8hKH5Y-146" value="" style="endArrow=classic;html=1;rounded=0;strokeWidth=2;fontSize=16;entryX=1;entryY=0.75;entryDx=0;entryDy=0;" parent="1" target="qD9jmZiLQEbPsk8hKH5Y-145" edge="1">
          <mxGeometry width="50" height="50" relative="1" as="geometry">
            <mxPoint x="525.79" y="1689" as="sourcePoint" />
            <mxPoint x="485.79" y="1679" as="targetPoint" />
          </mxGeometry>
        </mxCell>
        <mxCell id="qD9jmZiLQEbPsk8hKH5Y-150" value="Read Queries" style="rounded=1;whiteSpace=wrap;html=1;shadow=0;glass=0;sketch=0;strokeWidth=0;fontSize=16;fillColor=#f8cecc;strokeColor=#b85450;" parent="1" vertex="1">
          <mxGeometry x="454.79" y="1639" width="130" height="22.5" as="geometry" />
        </mxCell>
        <mxCell id="qD9jmZiLQEbPsk8hKH5Y-151" value="" style="endArrow=classic;html=1;rounded=0;strokeWidth=2;fontSize=16;entryX=0;entryY=0.75;entryDx=0;entryDy=0;" parent="1" target="qD9jmZiLQEbPsk8hKH5Y-145" edge="1">
          <mxGeometry x="-1" y="240" width="50" height="50" relative="1" as="geometry">
            <mxPoint x="76.79" y="1839" as="sourcePoint" />
            <mxPoint x="295.79" y="1609" as="targetPoint" />
            <mxPoint x="-70" y="160" as="offset" />
          </mxGeometry>
        </mxCell>
        <mxCell id="qD9jmZiLQEbPsk8hKH5Y-152" value="Write Queries" style="rounded=1;whiteSpace=wrap;html=1;shadow=0;glass=0;sketch=0;strokeWidth=0;fontSize=16;fillColor=#f8cecc;strokeColor=#b85450;" parent="1" vertex="1">
          <mxGeometry x="126.79" y="1707.75" width="130" height="22.5" as="geometry" />
        </mxCell>
        <mxCell id="qD9jmZiLQEbPsk8hKH5Y-154" value="" style="endArrow=classic;html=1;rounded=0;strokeWidth=2;fontSize=16;entryX=0.75;entryY=1;entryDx=0;entryDy=0;" parent="1" target="qD9jmZiLQEbPsk8hKH5Y-144" edge="1">
          <mxGeometry x="-0.2" y="-28" width="50" height="50" relative="1" as="geometry">
            <mxPoint x="625.79" y="1839" as="sourcePoint" />
            <mxPoint x="675.79" y="1789" as="targetPoint" />
            <mxPoint as="offset" />
          </mxGeometry>
        </mxCell>
        <mxCell id="qD9jmZiLQEbPsk8hKH5Y-347" style="edgeStyle=orthogonalEdgeStyle;rounded=0;orthogonalLoop=1;jettySize=auto;html=1;exitX=0;exitY=0.5;exitDx=0;exitDy=0;exitPerimeter=0;strokeWidth=2;fontSize=18;" parent="1" source="qD9jmZiLQEbPsk8hKH5Y-161" edge="1">
          <mxGeometry relative="1" as="geometry">
            <mxPoint x="1180" y="1272.2352941176473" as="targetPoint" />
          </mxGeometry>
        </mxCell>
        <mxCell id="qD9jmZiLQEbPsk8hKH5Y-161" value="&lt;font style=&quot;font-size: 15px;&quot;&gt;This is Flink manager monitoring few critical job and reprocessing on demand basis&lt;/font&gt;" style="shape=note;whiteSpace=wrap;html=1;backgroundOutline=1;darkOpacity=0.05;rounded=1;shadow=0;glass=0;sketch=0;strokeColor=#82b366;strokeWidth=3;fontSize=14;fillColor=#d5e8d4;" parent="1" vertex="1">
          <mxGeometry x="1330" y="1221.75" width="312" height="100" as="geometry" />
        </mxCell>
        <mxCell id="qD9jmZiLQEbPsk8hKH5Y-207" value="&lt;font style=&quot;font-size: 16px;&quot;&gt;Ingress&lt;/font&gt;" style="text;html=1;align=center;verticalAlign=middle;resizable=0;points=[];autosize=1;strokeColor=none;fillColor=none;fontSize=14;rounded=0;shadow=0;glass=0;sketch=0;strokeWidth=3;" parent="1" vertex="1">
          <mxGeometry x="349" y="350" width="80" height="30" as="geometry" />
        </mxCell>
        <mxCell id="qD9jmZiLQEbPsk8hKH5Y-222" value="&lt;font style=&quot;font-size: 14px;&quot;&gt;Cached Queries&amp;nbsp;&lt;/font&gt;" style="text;html=1;align=center;verticalAlign=middle;resizable=0;points=[];autosize=1;strokeColor=#b85450;fillColor=#f8cecc;fontSize=13;" parent="1" vertex="1">
          <mxGeometry x="565" y="1707.75" width="130" height="30" as="geometry" />
        </mxCell>
        <mxCell id="qD9jmZiLQEbPsk8hKH5Y-223" value="" style="shape=mxgraph.gcp2.doubleRect;strokeColor=#666666;shadow=1;strokeWidth=1;rounded=1;absoluteArcSize=1;arcSize=2;glass=0;sketch=0;fontSize=14;fillColor=#f5f5f5;fontColor=#333333;" parent="1" vertex="1">
          <mxGeometry x="989.9999999999999" y="1290" width="178" height="68" as="geometry" />
        </mxCell>
        <mxCell id="qD9jmZiLQEbPsk8hKH5Y-224" value="&lt;font style=&quot;font-size: 16px;&quot; color=&quot;#000000&quot;&gt;Flink&amp;nbsp;&lt;br&gt;&lt;/font&gt;&lt;font style=&quot;font-size: 18px;&quot;&gt;Manager&lt;/font&gt;" style="editableCssRules=.*;html=1;fontColor=#999999;shape=image;verticalLabelPosition=middle;labelBackgroundColor=#ffffff;verticalAlign=middle;labelPosition=right;align=left;spacingLeft=20;part=1;points=[];imageAspect=0;image=data:image/svg+xml,PHN2ZyB4bWxucz0iaHR0cDovL3d3dy53My5vcmcvMjAwMC9zdmciIHhtbG5zOnY9Imh0dHBzOi8vdmVjdGEuaW8vbmFubyIgd2lkdGg9IjE4LjMwMDAwMTE0NDQwOTE4IiBoZWlnaHQ9IjE5LjgyNjUwNTY2MTAxMDc0MiIgdmlld0JveD0iLTguNzkxNTE5NjkwMDIxMjMyZS04IDAgMTguMzAwMDAxMTQ0NDA5MTggMTkuODI2NTA1NjYxMDEwNzQyIj4mI3hhOwk8c3R5bGUgdHlwZT0idGV4dC9jc3MiPiYjeGE7CS5zdDB7ZmlsbDojNDI4NWY0fSYjeGE7CS5zdDF7ZmlsbDojYWVjYmZhfSYjeGE7CS5zdDJ7ZmlsbDojNjY5ZGY2fSYjeGE7CTwvc3R5bGU+JiN4YTsJPHBhdGggY2xhc3M9InN0MCIgZD0iTTMuMDEgMTguNDlhMS41MSAxLjUxIDAgMCAxLTMgMGgwdi00LjI4YTEuNTEgMS41MSAwIDEgMSAzIDB6bTUuMTMgMGExLjUxIDEuNTEgMCAwIDEtMyAwaDB2LTQuMjhhMS41MSAxLjUxIDAgMCAxIDMgMHptNS4wNiAwYTEuNTEgMS41MSAwIDAgMS0zIDB2LTQuMjhhMS41MSAxLjUxIDAgMCAxIDMgMHptNS4wOSAwYTEuNTEgMS41MSAwIDAgMS0zIDB2LTQuMjhhMS41MSAxLjUxIDAgMSAxIDMgMHoiLz4mI3hhOwk8Y2lyY2xlIGNsYXNzPSJzdDEiIGN4PSI2LjU5IiBjeT0iOS45NyIgcj0iMS41MSIvPiYjeGE7CTxjaXJjbGUgY2xhc3M9InN0MiIgY3g9IjExLjY5IiBjeT0iOS45NyIgcj0iMS41MSIvPiYjeGE7CTxjaXJjbGUgY2xhc3M9InN0MSIgY3g9IjExLjY5IiBjeT0iNS43NCIgcj0iMS41MSIvPiYjeGE7CTxnIGNsYXNzPSJzdDIiPiYjeGE7CQk8Y2lyY2xlIGN4PSIxNi43OCIgY3k9IjkuOTciIHI9IjEuNTEiLz4mI3hhOwkJPGNpcmNsZSBjeD0iMTYuNzgiIGN5PSI1Ljc0IiByPSIxLjUxIi8+JiN4YTsJPC9nPiYjeGE7CTxjaXJjbGUgY2xhc3M9InN0MSIgY3g9IjE2Ljc4IiBjeT0iMS41MSIgcj0iMS41MSIvPiYjeGE7PC9zdmc+;rounded=0;shadow=0;glass=0;sketch=0;strokeColor=#000000;strokeWidth=3;fontSize=14;fillColor=#F8CECC;gradientColor=none;" parent="qD9jmZiLQEbPsk8hKH5Y-223" vertex="1">
          <mxGeometry width="30" height="30" relative="1" as="geometry">
            <mxPoint x="15" y="15" as="offset" />
          </mxGeometry>
        </mxCell>
        <mxCell id="qD9jmZiLQEbPsk8hKH5Y-233" style="edgeStyle=orthogonalEdgeStyle;rounded=0;orthogonalLoop=1;jettySize=auto;html=1;exitX=0.5;exitY=0;exitDx=0;exitDy=0;entryX=0;entryY=0.25;entryDx=0;entryDy=0;strokeWidth=2;fontSize=18;" parent="1" source="qD9jmZiLQEbPsk8hKH5Y-230" target="qD9jmZiLQEbPsk8hKH5Y-22" edge="1">
          <mxGeometry relative="1" as="geometry" />
        </mxCell>
        <mxCell id="qD9jmZiLQEbPsk8hKH5Y-230" value="" style="shape=mxgraph.gcp2.doubleRect;strokeColor=#6c8ebf;shadow=1;strokeWidth=1;rounded=1;absoluteArcSize=1;arcSize=2;glass=0;dashed=1;sketch=0;fontSize=18;fillColor=#dae8fc;" parent="1" vertex="1">
          <mxGeometry x="-153.70999999999998" y="420" width="170" height="70" as="geometry" />
        </mxCell>
        <mxCell id="qD9jmZiLQEbPsk8hKH5Y-231" value="&lt;font color=&quot;#000000&quot;&gt;Azure&lt;/font&gt;&lt;br&gt;Cloud IAM" style="editableCssRules=.*;html=1;fontColor=#999999;shape=image;verticalLabelPosition=middle;labelBackgroundColor=#ffffff;verticalAlign=middle;labelPosition=right;align=left;spacingLeft=20;part=1;points=[];imageAspect=0;image=data:image/svg+xml,PHN2ZyB4bWxucz0iaHR0cDovL3d3dy53My5vcmcvMjAwMC9zdmciIHhtbG5zOnY9Imh0dHBzOi8vdmVjdGEuaW8vbmFubyIgd2lkdGg9IjE2LjQyMDAwMDA3NjI5Mzk0NSIgaGVpZ2h0PSIyMC4wNDk5OTkyMzcwNjA1NDciIGZpbGwtcnVsZT0iZXZlbm9kZCIgdmlld0JveD0iMCAwIDE2LjQyMDAwMDA3NjI5Mzk0NSAyMC4wNDk5OTkyMzcwNjA1NDciPiYjeGE7CTxzdHlsZSB0eXBlPSJ0ZXh0L2NzcyI+JiN4YTsJLnN0MHtmaWxsOiM0Mjg1ZjQ7fSYjeGE7CS5zdDF7ZmlsbDojNjY5ZGY2O30mI3hhOwk8L3N0eWxlPiYjeGE7CTxwYXRoIGNsYXNzPSJzdDEiIGQ9Ik04LjIxIDBMMCAzLjQydjUuNjNjMCA1LjA2IDMuNSA5LjggOC4yMSAxMSA0LjcxLTEuMTUgOC4yMS01Ljg5IDguMjEtMTAuOTVWMy40MnptMCAzLjc5YTIuNjMgMi42MyAwIDAgMSAxLjAwNSA1LjA2QTIuNjMgMi42MyAwIDAgMSA2LjM1IDQuNTZhMi42MyAyLjYzIDAgMCAxIDEuODYtLjc3em00LjExIDExLjE1YTguNjQgOC42NCAwIDAgMS00LjExIDIuOTMgOC42NCA4LjY0IDAgMCAxLTQuMTEtMi45M3YtMi4yNWMwLTEuNjcgMi43NC0yLjUyIDQuMTEtMi41MnM0LjExLjg1IDQuMTEgMi41MnoiLz4mI3hhOwk8cGF0aCBjbGFzcz0ic3QwIiBkPSJNOC4yMSAwdjMuNzlhMi42MyAyLjYzIDAgMSAxIDAgNS4yNnYxLjEyYzEuMzcgMCA0LjExLjg1IDQuMTEgMi41MnYyLjI1YTguNjQgOC42NCAwIDAgMS00LjExIDIuOTNWMjBjNC43MS0xLjE1IDguMjEtNS44OSA4LjIxLTEwLjk1VjMuNDJ6Ii8+JiN4YTs8L3N2Zz4=;rounded=0;shadow=0;glass=0;dashed=1;sketch=0;strokeColor=#000000;strokeWidth=3;fontSize=18;fillColor=#F8CECC;gradientColor=none;" parent="qD9jmZiLQEbPsk8hKH5Y-230" vertex="1">
          <mxGeometry width="24" height="30" relative="1" as="geometry">
            <mxPoint x="18" y="15" as="offset" />
          </mxGeometry>
        </mxCell>
        <mxCell id="qD9jmZiLQEbPsk8hKH5Y-251" value="&lt;font style=&quot;font-size: 14px;&quot;&gt;Spring&lt;br&gt;Integration&lt;br&gt;Framework&amp;nbsp;&lt;/font&gt;" style="text;html=1;align=center;verticalAlign=middle;resizable=0;points=[];autosize=1;strokeColor=none;fillColor=none;fontSize=12;" parent="1" vertex="1">
          <mxGeometry x="-41.51" y="1005" width="100" height="60" as="geometry" />
        </mxCell>
        <mxCell id="qD9jmZiLQEbPsk8hKH5Y-252" value="" style="sketch=0;pointerEvents=1;shadow=0;dashed=0;html=1;strokeColor=none;labelPosition=center;verticalLabelPosition=bottom;verticalAlign=top;align=center;fillColor=#515151;shape=mxgraph.mscae.system_center.admin_console" parent="1" vertex="1">
          <mxGeometry x="120" y="-160" width="56.79" height="46" as="geometry" />
        </mxCell>
        <mxCell id="qD9jmZiLQEbPsk8hKH5Y-253" value="" style="sketch=0;pointerEvents=1;shadow=0;dashed=0;html=1;strokeColor=none;labelPosition=center;verticalLabelPosition=bottom;verticalAlign=top;align=center;fillColor=#505050;shape=mxgraph.mscae.intune.device_os" parent="1" vertex="1">
          <mxGeometry x="120" y="-70" width="56.79" height="60" as="geometry" />
        </mxCell>
        <mxCell id="qD9jmZiLQEbPsk8hKH5Y-254" value="" style="rounded=0;whiteSpace=wrap;html=1;strokeWidth=2;" parent="1" vertex="1">
          <mxGeometry x="517.79" y="-130" width="110" height="110" as="geometry" />
        </mxCell>
        <mxCell id="qD9jmZiLQEbPsk8hKH5Y-255" value="" style="endArrow=none;html=1;rounded=0;strokeWidth=3;" parent="1" edge="1">
          <mxGeometry width="50" height="50" relative="1" as="geometry">
            <mxPoint x="176.79" y="-130" as="sourcePoint" />
            <mxPoint x="327.7900000000005" y="-130" as="targetPoint" />
          </mxGeometry>
        </mxCell>
        <mxCell id="qD9jmZiLQEbPsk8hKH5Y-256" value="" style="endArrow=none;html=1;rounded=0;strokeWidth=3;" parent="1" edge="1">
          <mxGeometry width="50" height="50" relative="1" as="geometry">
            <mxPoint x="176.79" y="-45.5" as="sourcePoint" />
            <mxPoint x="327.7900000000005" y="-45.5" as="targetPoint" />
          </mxGeometry>
        </mxCell>
        <mxCell id="qD9jmZiLQEbPsk8hKH5Y-257" value="" style="endArrow=none;html=1;rounded=0;strokeWidth=2;" parent="1" edge="1">
          <mxGeometry width="50" height="50" relative="1" as="geometry">
            <mxPoint x="327.7900000000005" y="-40" as="sourcePoint" />
            <mxPoint x="327.7900000000005" y="-130" as="targetPoint" />
          </mxGeometry>
        </mxCell>
        <mxCell id="qD9jmZiLQEbPsk8hKH5Y-259" value="&lt;font style=&quot;font-size: 15px;&quot;&gt;React App&lt;/font&gt;" style="text;html=1;align=center;verticalAlign=middle;resizable=0;points=[];autosize=1;strokeColor=none;fillColor=none;strokeWidth=3;" parent="1" vertex="1">
          <mxGeometry x="529.29" y="-130" width="90" height="30" as="geometry" />
        </mxCell>
        <mxCell id="qD9jmZiLQEbPsk8hKH5Y-260" value="" style="endArrow=classic;html=1;rounded=0;strokeWidth=2;" parent="1" edge="1">
          <mxGeometry width="50" height="50" relative="1" as="geometry">
            <mxPoint x="447.7900000000005" y="-90" as="sourcePoint" />
            <mxPoint x="517.7900000000004" y="-90" as="targetPoint" />
          </mxGeometry>
        </mxCell>
        <mxCell id="qD9jmZiLQEbPsk8hKH5Y-261" value="" style="aspect=fixed;perimeter=ellipsePerimeter;html=1;align=center;shadow=0;dashed=0;fontColor=#4277BB;labelBackgroundColor=#ffffff;fontSize=12;spacingTop=3;image;image=img/lib/ibm/vpc/PublicGateway.svg;" parent="1" vertex="1">
          <mxGeometry x="397.79" y="-120" width="65" height="65" as="geometry" />
        </mxCell>
        <mxCell id="qD9jmZiLQEbPsk8hKH5Y-262" value="" style="endArrow=classic;html=1;rounded=0;strokeWidth=2;" parent="1" edge="1">
          <mxGeometry width="50" height="50" relative="1" as="geometry">
            <mxPoint x="327.7900000000005" y="-90" as="sourcePoint" />
            <mxPoint x="407.7900000000005" y="-90" as="targetPoint" />
          </mxGeometry>
        </mxCell>
        <mxCell id="qD9jmZiLQEbPsk8hKH5Y-264" style="edgeStyle=orthogonalEdgeStyle;rounded=0;orthogonalLoop=1;jettySize=auto;html=1;exitX=0;exitY=0.5;exitDx=0;exitDy=0;strokeWidth=2;fontSize=16;" parent="1" source="qD9jmZiLQEbPsk8hKH5Y-265" edge="1">
          <mxGeometry relative="1" as="geometry">
            <mxPoint x="627.7900000000004" y="-85.28571428571422" as="targetPoint" />
          </mxGeometry>
        </mxCell>
        <mxCell id="qD9jmZiLQEbPsk8hKH5Y-300" style="edgeStyle=orthogonalEdgeStyle;rounded=0;orthogonalLoop=1;jettySize=auto;html=1;exitX=0.5;exitY=1;exitDx=0;exitDy=0;entryX=0.901;entryY=0.333;entryDx=0;entryDy=0;entryPerimeter=0;strokeWidth=2;fontSize=14;" parent="1" source="qD9jmZiLQEbPsk8hKH5Y-265" target="qD9jmZiLQEbPsk8hKH5Y-296" edge="1">
          <mxGeometry relative="1" as="geometry" />
        </mxCell>
        <mxCell id="qD9jmZiLQEbPsk8hKH5Y-265" value="" style="shape=image;html=1;verticalAlign=top;verticalLabelPosition=bottom;labelBackgroundColor=#ffffff;imageAspect=0;aspect=fixed;image=https://cdn0.iconfinder.com/data/icons/security-double-color-red-and-black-vol-2/52/lock__secured__private__security-128.png" parent="1" vertex="1">
          <mxGeometry x="727.79" y="-100" width="30" height="30" as="geometry" />
        </mxCell>
        <mxCell id="qD9jmZiLQEbPsk8hKH5Y-267" value="" style="outlineConnect=0;dashed=0;verticalLabelPosition=bottom;verticalAlign=top;align=center;html=1;shape=mxgraph.aws3.quicksight;fillColor=#00B7F4;gradientColor=none;rounded=1;shadow=0;glass=0;sketch=0;strokeColor=#000000;strokeWidth=2;fontSize=16;" parent="1" vertex="1">
          <mxGeometry x="533.79" y="-90" width="81" height="60" as="geometry" />
        </mxCell>
        <mxCell id="qD9jmZiLQEbPsk8hKH5Y-288" style="edgeStyle=orthogonalEdgeStyle;rounded=0;orthogonalLoop=1;jettySize=auto;html=1;exitX=1;exitY=0.5;exitDx=0;exitDy=0;strokeWidth=2;fontSize=14;" parent="1" source="qD9jmZiLQEbPsk8hKH5Y-273" target="qD9jmZiLQEbPsk8hKH5Y-275" edge="1">
          <mxGeometry relative="1" as="geometry" />
        </mxCell>
        <mxCell id="qD9jmZiLQEbPsk8hKH5Y-292" style="edgeStyle=orthogonalEdgeStyle;rounded=0;orthogonalLoop=1;jettySize=auto;html=1;exitX=0.75;exitY=1;exitDx=0;exitDy=0;entryX=0.25;entryY=0;entryDx=0;entryDy=0;strokeWidth=2;fontSize=14;" parent="1" source="qD9jmZiLQEbPsk8hKH5Y-273" target="qD9jmZiLQEbPsk8hKH5Y-279" edge="1">
          <mxGeometry relative="1" as="geometry" />
        </mxCell>
        <mxCell id="qD9jmZiLQEbPsk8hKH5Y-273" value="" style="shape=mxgraph.gcp2.doubleRect;strokeColor=#666666;shadow=1;strokeWidth=1;rounded=1;absoluteArcSize=1;arcSize=2;glass=0;dashed=1;dashPattern=1 1;sketch=0;fontSize=14;fillColor=#f5f5f5;fontColor=#333333;" parent="1" vertex="1">
          <mxGeometry x="176.79" y="777.5" width="114.21" height="60" as="geometry" />
        </mxCell>
        <mxCell id="qD9jmZiLQEbPsk8hKH5Y-274" value="&lt;font color=&quot;#000000&quot;&gt;API&lt;/font&gt;" style="editableCssRules=.*;html=1;fontColor=#999999;shape=image;verticalLabelPosition=middle;labelBackgroundColor=#ffffff;verticalAlign=middle;labelPosition=right;align=left;spacingLeft=20;part=1;points=[];imageAspect=0;image=data:image/svg+xml,PHN2ZyB4bWxucz0iaHR0cDovL3d3dy53My5vcmcvMjAwMC9zdmciIHhtbG5zOnY9Imh0dHBzOi8vdmVjdGEuaW8vbmFubyIgd2lkdGg9IjIwIiBoZWlnaHQ9IjE0LjE0MzAxOTY3NjIwODQ5NiIgdmlld0JveD0iMCAwLjAwMDQ4OTk2NjI0NTM2ODEyMzEgMjAgMTQuMTQzMDE5Njc2MjA4NDk2Ij4mI3hhOwk8c3R5bGUgdHlwZT0idGV4dC9jc3MiPiYjeGE7CS5zdDB7ZmlsbDojNDI4NWY0O30mI3hhOwkuc3Qxe2ZpbGw6IzY2OWRmNjt9JiN4YTsJPC9zdHlsZT4mI3hhOwk8cGF0aCBjbGFzcz0ic3QwIiBkPSJNMTAgMS40NzJhNS41OSA1LjU5IDAgMCAxIDQgMS42bDEtMWE3LjA3IDcuMDcgMCAwIDAtMTAgMGgwbDEgMWE1LjU5IDUuNTkgMCAwIDEgNC0xLjZ6bTAgMTEuMmE1LjU5IDUuNTkgMCAwIDEtNC0xLjZsLTEgMWE3LjA3IDcuMDcgMCAwIDAgMTAgMGgwbC0xLTFhNS41OSA1LjU5IDAgMCAxLTQgMS42eiIvPiYjeGE7CTxwYXRoIGNsYXNzPSJzdDEiIGQ9Ik0xMCAxMC4xNDJhMy4wNiAzLjA2IDAgMCAxLTMtMi4zNEgzLjExdjIuMzhMMCA3LjA3MmwzLjExLTMuMXYyLjM4SDdhMy4wNiAzLjA2IDAgMCAxIDMtMi4zNGgwYTMuMDYgMy4wNiAwIDAgMSAzIDIuMzRoMy45MXYtMi4zOUwyMCA3LjA3MmwtMy4xMSAzLjEydi0yLjM5SDEzYTMuMDYgMy4wNiAwIDAgMS0zIDIuMzR6bTAtNC42OGExLjYxIDEuNjEgMCAxIDAgMS42MSAxLjYxaDBBMS42MSAxLjYxIDAgMCAwIDEwIDUuNDYyeiIvPiYjeGE7PC9zdmc+;rounded=0;shadow=0;glass=0;dashed=1;dashPattern=1 1;sketch=0;strokeColor=#000000;strokeWidth=3;fontSize=14;fillColor=#F8CECC;gradientColor=none;" parent="qD9jmZiLQEbPsk8hKH5Y-273" vertex="1">
          <mxGeometry width="30" height="21" relative="1" as="geometry">
            <mxPoint x="15" y="19.5" as="offset" />
          </mxGeometry>
        </mxCell>
        <mxCell id="qD9jmZiLQEbPsk8hKH5Y-289" style="edgeStyle=orthogonalEdgeStyle;rounded=0;orthogonalLoop=1;jettySize=auto;html=1;exitX=1;exitY=0.5;exitDx=0;exitDy=0;entryX=0;entryY=0.5;entryDx=0;entryDy=0;strokeWidth=2;fontSize=14;" parent="1" source="qD9jmZiLQEbPsk8hKH5Y-275" target="qD9jmZiLQEbPsk8hKH5Y-281" edge="1">
          <mxGeometry relative="1" as="geometry" />
        </mxCell>
        <mxCell id="qD9jmZiLQEbPsk8hKH5Y-293" style="edgeStyle=orthogonalEdgeStyle;rounded=0;orthogonalLoop=1;jettySize=auto;html=1;exitX=1;exitY=0.75;exitDx=0;exitDy=0;strokeWidth=2;fontSize=14;" parent="1" source="qD9jmZiLQEbPsk8hKH5Y-275" target="qD9jmZiLQEbPsk8hKH5Y-31" edge="1">
          <mxGeometry relative="1" as="geometry" />
        </mxCell>
        <mxCell id="qD9jmZiLQEbPsk8hKH5Y-275" value="" style="shape=mxgraph.gcp2.doubleRect;strokeColor=#666666;shadow=1;strokeWidth=1;rounded=1;absoluteArcSize=1;arcSize=2;glass=0;dashed=1;dashPattern=1 1;sketch=0;fontSize=14;fillColor=#f5f5f5;fontColor=#333333;" parent="1" vertex="1">
          <mxGeometry x="328.19" y="777.63" width="114.21" height="60" as="geometry" />
        </mxCell>
        <mxCell id="qD9jmZiLQEbPsk8hKH5Y-276" value="&lt;font color=&quot;#000000&quot;&gt;API&lt;/font&gt;" style="editableCssRules=.*;html=1;fontColor=#999999;shape=image;verticalLabelPosition=middle;labelBackgroundColor=#ffffff;verticalAlign=middle;labelPosition=right;align=left;spacingLeft=20;part=1;points=[];imageAspect=0;image=data:image/svg+xml,PHN2ZyB4bWxucz0iaHR0cDovL3d3dy53My5vcmcvMjAwMC9zdmciIHhtbG5zOnY9Imh0dHBzOi8vdmVjdGEuaW8vbmFubyIgd2lkdGg9IjIwIiBoZWlnaHQ9IjE0LjE0MzAxOTY3NjIwODQ5NiIgdmlld0JveD0iMCAwLjAwMDQ4OTk2NjI0NTM2ODEyMzEgMjAgMTQuMTQzMDE5Njc2MjA4NDk2Ij4mI3hhOwk8c3R5bGUgdHlwZT0idGV4dC9jc3MiPiYjeGE7CS5zdDB7ZmlsbDojNDI4NWY0O30mI3hhOwkuc3Qxe2ZpbGw6IzY2OWRmNjt9JiN4YTsJPC9zdHlsZT4mI3hhOwk8cGF0aCBjbGFzcz0ic3QwIiBkPSJNMTAgMS40NzJhNS41OSA1LjU5IDAgMCAxIDQgMS42bDEtMWE3LjA3IDcuMDcgMCAwIDAtMTAgMGgwbDEgMWE1LjU5IDUuNTkgMCAwIDEgNC0xLjZ6bTAgMTEuMmE1LjU5IDUuNTkgMCAwIDEtNC0xLjZsLTEgMWE3LjA3IDcuMDcgMCAwIDAgMTAgMGgwbC0xLTFhNS41OSA1LjU5IDAgMCAxLTQgMS42eiIvPiYjeGE7CTxwYXRoIGNsYXNzPSJzdDEiIGQ9Ik0xMCAxMC4xNDJhMy4wNiAzLjA2IDAgMCAxLTMtMi4zNEgzLjExdjIuMzhMMCA3LjA3MmwzLjExLTMuMXYyLjM4SDdhMy4wNiAzLjA2IDAgMCAxIDMtMi4zNGgwYTMuMDYgMy4wNiAwIDAgMSAzIDIuMzRoMy45MXYtMi4zOUwyMCA3LjA3MmwtMy4xMSAzLjEydi0yLjM5SDEzYTMuMDYgMy4wNiAwIDAgMS0zIDIuMzR6bTAtNC42OGExLjYxIDEuNjEgMCAxIDAgMS42MSAxLjYxaDBBMS42MSAxLjYxIDAgMCAwIDEwIDUuNDYyeiIvPiYjeGE7PC9zdmc+;rounded=0;shadow=0;glass=0;dashed=1;dashPattern=1 1;sketch=0;strokeColor=#000000;strokeWidth=3;fontSize=14;fillColor=#F8CECC;gradientColor=none;" parent="qD9jmZiLQEbPsk8hKH5Y-275" vertex="1">
          <mxGeometry width="30" height="21" relative="1" as="geometry">
            <mxPoint x="15" y="19.5" as="offset" />
          </mxGeometry>
        </mxCell>
        <mxCell id="qD9jmZiLQEbPsk8hKH5Y-291" style="edgeStyle=orthogonalEdgeStyle;rounded=0;orthogonalLoop=1;jettySize=auto;html=1;exitX=1;exitY=0.5;exitDx=0;exitDy=0;entryX=0;entryY=0.5;entryDx=0;entryDy=0;strokeWidth=2;fontSize=14;" parent="1" source="qD9jmZiLQEbPsk8hKH5Y-277" target="qD9jmZiLQEbPsk8hKH5Y-279" edge="1">
          <mxGeometry relative="1" as="geometry" />
        </mxCell>
        <mxCell id="qD9jmZiLQEbPsk8hKH5Y-277" value="" style="shape=mxgraph.gcp2.doubleRect;strokeColor=#666666;shadow=1;strokeWidth=1;rounded=1;absoluteArcSize=1;arcSize=2;glass=0;dashed=1;dashPattern=1 1;sketch=0;fontSize=14;fillColor=#f5f5f5;fontColor=#333333;" parent="1" vertex="1">
          <mxGeometry x="210" y="860" width="114.21" height="60" as="geometry" />
        </mxCell>
        <mxCell id="qD9jmZiLQEbPsk8hKH5Y-278" value="&lt;font color=&quot;#000000&quot;&gt;API&lt;/font&gt;" style="editableCssRules=.*;html=1;fontColor=#999999;shape=image;verticalLabelPosition=middle;labelBackgroundColor=#ffffff;verticalAlign=middle;labelPosition=right;align=left;spacingLeft=20;part=1;points=[];imageAspect=0;image=data:image/svg+xml,PHN2ZyB4bWxucz0iaHR0cDovL3d3dy53My5vcmcvMjAwMC9zdmciIHhtbG5zOnY9Imh0dHBzOi8vdmVjdGEuaW8vbmFubyIgd2lkdGg9IjIwIiBoZWlnaHQ9IjE0LjE0MzAxOTY3NjIwODQ5NiIgdmlld0JveD0iMCAwLjAwMDQ4OTk2NjI0NTM2ODEyMzEgMjAgMTQuMTQzMDE5Njc2MjA4NDk2Ij4mI3hhOwk8c3R5bGUgdHlwZT0idGV4dC9jc3MiPiYjeGE7CS5zdDB7ZmlsbDojNDI4NWY0O30mI3hhOwkuc3Qxe2ZpbGw6IzY2OWRmNjt9JiN4YTsJPC9zdHlsZT4mI3hhOwk8cGF0aCBjbGFzcz0ic3QwIiBkPSJNMTAgMS40NzJhNS41OSA1LjU5IDAgMCAxIDQgMS42bDEtMWE3LjA3IDcuMDcgMCAwIDAtMTAgMGgwbDEgMWE1LjU5IDUuNTkgMCAwIDEgNC0xLjZ6bTAgMTEuMmE1LjU5IDUuNTkgMCAwIDEtNC0xLjZsLTEgMWE3LjA3IDcuMDcgMCAwIDAgMTAgMGgwbC0xLTFhNS41OSA1LjU5IDAgMCAxLTQgMS42eiIvPiYjeGE7CTxwYXRoIGNsYXNzPSJzdDEiIGQ9Ik0xMCAxMC4xNDJhMy4wNiAzLjA2IDAgMCAxLTMtMi4zNEgzLjExdjIuMzhMMCA3LjA3MmwzLjExLTMuMXYyLjM4SDdhMy4wNiAzLjA2IDAgMCAxIDMtMi4zNGgwYTMuMDYgMy4wNiAwIDAgMSAzIDIuMzRoMy45MXYtMi4zOUwyMCA3LjA3MmwtMy4xMSAzLjEydi0yLjM5SDEzYTMuMDYgMy4wNiAwIDAgMS0zIDIuMzR6bTAtNC42OGExLjYxIDEuNjEgMCAxIDAgMS42MSAxLjYxaDBBMS42MSAxLjYxIDAgMCAwIDEwIDUuNDYyeiIvPiYjeGE7PC9zdmc+;rounded=0;shadow=0;glass=0;dashed=1;dashPattern=1 1;sketch=0;strokeColor=#000000;strokeWidth=3;fontSize=14;fillColor=#F8CECC;gradientColor=none;" parent="qD9jmZiLQEbPsk8hKH5Y-277" vertex="1">
          <mxGeometry width="30" height="21" relative="1" as="geometry">
            <mxPoint x="15" y="19.5" as="offset" />
          </mxGeometry>
        </mxCell>
        <mxCell id="qD9jmZiLQEbPsk8hKH5Y-290" style="edgeStyle=orthogonalEdgeStyle;rounded=0;orthogonalLoop=1;jettySize=auto;html=1;exitX=1;exitY=0.5;exitDx=0;exitDy=0;strokeWidth=2;fontSize=14;" parent="1" source="qD9jmZiLQEbPsk8hKH5Y-279" target="qD9jmZiLQEbPsk8hKH5Y-283" edge="1">
          <mxGeometry relative="1" as="geometry" />
        </mxCell>
        <mxCell id="qD9jmZiLQEbPsk8hKH5Y-279" value="" style="shape=mxgraph.gcp2.doubleRect;strokeColor=#666666;shadow=1;strokeWidth=1;rounded=1;absoluteArcSize=1;arcSize=2;glass=0;dashed=1;dashPattern=1 1;sketch=0;fontSize=14;fillColor=#f5f5f5;fontColor=#333333;" parent="1" vertex="1">
          <mxGeometry x="363.8" y="860" width="114.21" height="60" as="geometry" />
        </mxCell>
        <mxCell id="qD9jmZiLQEbPsk8hKH5Y-280" value="&lt;font color=&quot;#000000&quot;&gt;API&lt;/font&gt;" style="editableCssRules=.*;html=1;fontColor=#999999;shape=image;verticalLabelPosition=middle;labelBackgroundColor=#ffffff;verticalAlign=middle;labelPosition=right;align=left;spacingLeft=20;part=1;points=[];imageAspect=0;image=data:image/svg+xml,PHN2ZyB4bWxucz0iaHR0cDovL3d3dy53My5vcmcvMjAwMC9zdmciIHhtbG5zOnY9Imh0dHBzOi8vdmVjdGEuaW8vbmFubyIgd2lkdGg9IjIwIiBoZWlnaHQ9IjE0LjE0MzAxOTY3NjIwODQ5NiIgdmlld0JveD0iMCAwLjAwMDQ4OTk2NjI0NTM2ODEyMzEgMjAgMTQuMTQzMDE5Njc2MjA4NDk2Ij4mI3hhOwk8c3R5bGUgdHlwZT0idGV4dC9jc3MiPiYjeGE7CS5zdDB7ZmlsbDojNDI4NWY0O30mI3hhOwkuc3Qxe2ZpbGw6IzY2OWRmNjt9JiN4YTsJPC9zdHlsZT4mI3hhOwk8cGF0aCBjbGFzcz0ic3QwIiBkPSJNMTAgMS40NzJhNS41OSA1LjU5IDAgMCAxIDQgMS42bDEtMWE3LjA3IDcuMDcgMCAwIDAtMTAgMGgwbDEgMWE1LjU5IDUuNTkgMCAwIDEgNC0xLjZ6bTAgMTEuMmE1LjU5IDUuNTkgMCAwIDEtNC0xLjZsLTEgMWE3LjA3IDcuMDcgMCAwIDAgMTAgMGgwbC0xLTFhNS41OSA1LjU5IDAgMCAxLTQgMS42eiIvPiYjeGE7CTxwYXRoIGNsYXNzPSJzdDEiIGQ9Ik0xMCAxMC4xNDJhMy4wNiAzLjA2IDAgMCAxLTMtMi4zNEgzLjExdjIuMzhMMCA3LjA3MmwzLjExLTMuMXYyLjM4SDdhMy4wNiAzLjA2IDAgMCAxIDMtMi4zNGgwYTMuMDYgMy4wNiAwIDAgMSAzIDIuMzRoMy45MXYtMi4zOUwyMCA3LjA3MmwtMy4xMSAzLjEydi0yLjM5SDEzYTMuMDYgMy4wNiAwIDAgMS0zIDIuMzR6bTAtNC42OGExLjYxIDEuNjEgMCAxIDAgMS42MSAxLjYxaDBBMS42MSAxLjYxIDAgMCAwIDEwIDUuNDYyeiIvPiYjeGE7PC9zdmc+;rounded=0;shadow=0;glass=0;dashed=1;dashPattern=1 1;sketch=0;strokeColor=#000000;strokeWidth=3;fontSize=14;fillColor=#F8CECC;gradientColor=none;" parent="qD9jmZiLQEbPsk8hKH5Y-279" vertex="1">
          <mxGeometry width="30" height="21" relative="1" as="geometry">
            <mxPoint x="15" y="19.5" as="offset" />
          </mxGeometry>
        </mxCell>
        <mxCell id="qD9jmZiLQEbPsk8hKH5Y-281" value="" style="shape=mxgraph.gcp2.doubleRect;strokeColor=#666666;shadow=1;strokeWidth=1;rounded=1;absoluteArcSize=1;arcSize=2;glass=0;dashed=1;dashPattern=1 1;sketch=0;fontSize=14;fillColor=#f5f5f5;fontColor=#333333;" parent="1" vertex="1">
          <mxGeometry x="477.78999999999996" y="780" width="114.21" height="60" as="geometry" />
        </mxCell>
        <mxCell id="qD9jmZiLQEbPsk8hKH5Y-282" value="&lt;font color=&quot;#000000&quot;&gt;API&lt;/font&gt;" style="editableCssRules=.*;html=1;fontColor=#999999;shape=image;verticalLabelPosition=middle;labelBackgroundColor=#ffffff;verticalAlign=middle;labelPosition=right;align=left;spacingLeft=20;part=1;points=[];imageAspect=0;image=data:image/svg+xml,PHN2ZyB4bWxucz0iaHR0cDovL3d3dy53My5vcmcvMjAwMC9zdmciIHhtbG5zOnY9Imh0dHBzOi8vdmVjdGEuaW8vbmFubyIgd2lkdGg9IjIwIiBoZWlnaHQ9IjE0LjE0MzAxOTY3NjIwODQ5NiIgdmlld0JveD0iMCAwLjAwMDQ4OTk2NjI0NTM2ODEyMzEgMjAgMTQuMTQzMDE5Njc2MjA4NDk2Ij4mI3hhOwk8c3R5bGUgdHlwZT0idGV4dC9jc3MiPiYjeGE7CS5zdDB7ZmlsbDojNDI4NWY0O30mI3hhOwkuc3Qxe2ZpbGw6IzY2OWRmNjt9JiN4YTsJPC9zdHlsZT4mI3hhOwk8cGF0aCBjbGFzcz0ic3QwIiBkPSJNMTAgMS40NzJhNS41OSA1LjU5IDAgMCAxIDQgMS42bDEtMWE3LjA3IDcuMDcgMCAwIDAtMTAgMGgwbDEgMWE1LjU5IDUuNTkgMCAwIDEgNC0xLjZ6bTAgMTEuMmE1LjU5IDUuNTkgMCAwIDEtNC0xLjZsLTEgMWE3LjA3IDcuMDcgMCAwIDAgMTAgMGgwbC0xLTFhNS41OSA1LjU5IDAgMCAxLTQgMS42eiIvPiYjeGE7CTxwYXRoIGNsYXNzPSJzdDEiIGQ9Ik0xMCAxMC4xNDJhMy4wNiAzLjA2IDAgMCAxLTMtMi4zNEgzLjExdjIuMzhMMCA3LjA3MmwzLjExLTMuMXYyLjM4SDdhMy4wNiAzLjA2IDAgMCAxIDMtMi4zNGgwYTMuMDYgMy4wNiAwIDAgMSAzIDIuMzRoMy45MXYtMi4zOUwyMCA3LjA3MmwtMy4xMSAzLjEydi0yLjM5SDEzYTMuMDYgMy4wNiAwIDAgMS0zIDIuMzR6bTAtNC42OGExLjYxIDEuNjEgMCAxIDAgMS42MSAxLjYxaDBBMS42MSAxLjYxIDAgMCAwIDEwIDUuNDYyeiIvPiYjeGE7PC9zdmc+;rounded=0;shadow=0;glass=0;dashed=1;dashPattern=1 1;sketch=0;strokeColor=#000000;strokeWidth=3;fontSize=14;fillColor=#F8CECC;gradientColor=none;" parent="qD9jmZiLQEbPsk8hKH5Y-281" vertex="1">
          <mxGeometry width="30" height="21" relative="1" as="geometry">
            <mxPoint x="15" y="19.5" as="offset" />
          </mxGeometry>
        </mxCell>
        <mxCell id="qD9jmZiLQEbPsk8hKH5Y-283" value="" style="shape=mxgraph.gcp2.doubleRect;strokeColor=#666666;shadow=1;strokeWidth=1;rounded=1;absoluteArcSize=1;arcSize=2;glass=0;dashed=1;dashPattern=1 1;sketch=0;fontSize=14;fillColor=#f5f5f5;fontColor=#333333;" parent="1" vertex="1">
          <mxGeometry x="510.79" y="860" width="114.21" height="60" as="geometry" />
        </mxCell>
        <mxCell id="qD9jmZiLQEbPsk8hKH5Y-284" value="&lt;font color=&quot;#000000&quot;&gt;API&lt;/font&gt;" style="editableCssRules=.*;html=1;fontColor=#999999;shape=image;verticalLabelPosition=middle;labelBackgroundColor=#ffffff;verticalAlign=middle;labelPosition=right;align=left;spacingLeft=20;part=1;points=[];imageAspect=0;image=data:image/svg+xml,PHN2ZyB4bWxucz0iaHR0cDovL3d3dy53My5vcmcvMjAwMC9zdmciIHhtbG5zOnY9Imh0dHBzOi8vdmVjdGEuaW8vbmFubyIgd2lkdGg9IjIwIiBoZWlnaHQ9IjE0LjE0MzAxOTY3NjIwODQ5NiIgdmlld0JveD0iMCAwLjAwMDQ4OTk2NjI0NTM2ODEyMzEgMjAgMTQuMTQzMDE5Njc2MjA4NDk2Ij4mI3hhOwk8c3R5bGUgdHlwZT0idGV4dC9jc3MiPiYjeGE7CS5zdDB7ZmlsbDojNDI4NWY0O30mI3hhOwkuc3Qxe2ZpbGw6IzY2OWRmNjt9JiN4YTsJPC9zdHlsZT4mI3hhOwk8cGF0aCBjbGFzcz0ic3QwIiBkPSJNMTAgMS40NzJhNS41OSA1LjU5IDAgMCAxIDQgMS42bDEtMWE3LjA3IDcuMDcgMCAwIDAtMTAgMGgwbDEgMWE1LjU5IDUuNTkgMCAwIDEgNC0xLjZ6bTAgMTEuMmE1LjU5IDUuNTkgMCAwIDEtNC0xLjZsLTEgMWE3LjA3IDcuMDcgMCAwIDAgMTAgMGgwbC0xLTFhNS41OSA1LjU5IDAgMCAxLTQgMS42eiIvPiYjeGE7CTxwYXRoIGNsYXNzPSJzdDEiIGQ9Ik0xMCAxMC4xNDJhMy4wNiAzLjA2IDAgMCAxLTMtMi4zNEgzLjExdjIuMzhMMCA3LjA3MmwzLjExLTMuMXYyLjM4SDdhMy4wNiAzLjA2IDAgMCAxIDMtMi4zNGgwYTMuMDYgMy4wNiAwIDAgMSAzIDIuMzRoMy45MXYtMi4zOUwyMCA3LjA3MmwtMy4xMSAzLjEydi0yLjM5SDEzYTMuMDYgMy4wNiAwIDAgMS0zIDIuMzR6bTAtNC42OGExLjYxIDEuNjEgMCAxIDAgMS42MSAxLjYxaDBBMS42MSAxLjYxIDAgMCAwIDEwIDUuNDYyeiIvPiYjeGE7PC9zdmc+;rounded=0;shadow=0;glass=0;dashed=1;dashPattern=1 1;sketch=0;strokeColor=#000000;strokeWidth=3;fontSize=14;fillColor=#F8CECC;gradientColor=none;" parent="qD9jmZiLQEbPsk8hKH5Y-283" vertex="1">
          <mxGeometry width="30" height="21" relative="1" as="geometry">
            <mxPoint x="15" y="19.5" as="offset" />
          </mxGeometry>
        </mxCell>
        <mxCell id="qD9jmZiLQEbPsk8hKH5Y-286" value="" style="shape=image;html=1;verticalAlign=top;verticalLabelPosition=bottom;labelBackgroundColor=#ffffff;imageAspect=0;aspect=fixed;image=https://cdn1.iconfinder.com/data/icons/material-core/23/https-128.png" parent="1" vertex="1">
          <mxGeometry x="377.78999999999996" y="205.00000000000006" width="25" height="25" as="geometry" />
        </mxCell>
        <mxCell id="qD9jmZiLQEbPsk8hKH5Y-287" value="" style="edgeStyle=orthogonalEdgeStyle;rounded=0;orthogonalLoop=1;jettySize=auto;html=1;strokeWidth=2;fontSize=15;entryX=0.5;entryY=0;entryDx=0;entryDy=0;endArrow=none;" parent="1" source="qD9jmZiLQEbPsk8hKH5Y-7" target="qD9jmZiLQEbPsk8hKH5Y-286" edge="1">
          <mxGeometry relative="1" as="geometry">
            <mxPoint x="528.29" y="172.47368421052624" as="sourcePoint" />
            <mxPoint x="389" y="290" as="targetPoint" />
          </mxGeometry>
        </mxCell>
        <mxCell id="qD9jmZiLQEbPsk8hKH5Y-299" style="edgeStyle=orthogonalEdgeStyle;rounded=0;orthogonalLoop=1;jettySize=auto;html=1;strokeWidth=2;fontSize=14;" parent="1" source="qD9jmZiLQEbPsk8hKH5Y-296" target="qD9jmZiLQEbPsk8hKH5Y-7" edge="1">
          <mxGeometry relative="1" as="geometry" />
        </mxCell>
        <mxCell id="qD9jmZiLQEbPsk8hKH5Y-296" value="domain.api.com" style="rounded=1;whiteSpace=wrap;html=1;shadow=0;glass=0;sketch=0;strokeColor=#d6b656;strokeWidth=3;fontSize=14;fillColor=#fff2cc;" parent="1" vertex="1">
          <mxGeometry x="635.1600000000001" y="30" width="120" height="30" as="geometry" />
        </mxCell>
        <mxCell id="qD9jmZiLQEbPsk8hKH5Y-302" value="&lt;font style=&quot;font-size: 14px;&quot;&gt;All MS API deployed and maintained under Azure AKS and All inter-communication happened through Ingress IP&lt;/font&gt;" style="shape=note;size=20;whiteSpace=wrap;html=1;fillColor=#fff2cc;strokeColor=#d6b656;" parent="1" vertex="1">
          <mxGeometry x="462.79" y="380" width="240" height="100" as="geometry" />
        </mxCell>
        <mxCell id="qD9jmZiLQEbPsk8hKH5Y-309" style="edgeStyle=orthogonalEdgeStyle;rounded=0;orthogonalLoop=1;jettySize=auto;html=1;exitX=0;exitY=0.5;exitDx=0;exitDy=0;entryX=0.942;entryY=0.422;entryDx=0;entryDy=0;entryPerimeter=0;strokeWidth=2;fontSize=13;" parent="1" source="qD9jmZiLQEbPsk8hKH5Y-305" edge="1">
          <mxGeometry relative="1" as="geometry">
            <mxPoint x="1000.0259999999998" y="690.966183512643" as="targetPoint" />
          </mxGeometry>
        </mxCell>
        <mxCell id="qD9jmZiLQEbPsk8hKH5Y-305" value="" style="rounded=0;whiteSpace=wrap;html=1;shadow=0;glass=0;sketch=0;strokeColor=#666666;strokeWidth=3;fontSize=13;fillColor=#f5f5f5;fontColor=#333333;" parent="1" vertex="1">
          <mxGeometry x="1180" y="626.5" width="300" height="130" as="geometry" />
        </mxCell>
        <mxCell id="qD9jmZiLQEbPsk8hKH5Y-306" value="" style="sketch=0;outlineConnect=0;fontColor=#232F3E;gradientColor=none;fillColor=#2E27AD;strokeColor=none;dashed=0;verticalLabelPosition=bottom;verticalAlign=top;align=center;html=1;fontSize=12;fontStyle=0;aspect=fixed;pointerEvents=1;shape=mxgraph.aws4.rds_postgresql_instance;rounded=0;shadow=0;glass=0;strokeWidth=3;" parent="1" vertex="1">
          <mxGeometry x="1350" y="646.5" width="90" height="90" as="geometry" />
        </mxCell>
        <mxCell id="qD9jmZiLQEbPsk8hKH5Y-307" value="" style="sketch=0;outlineConnect=0;fontColor=#232F3E;gradientColor=none;fillColor=#2E27AD;strokeColor=none;dashed=0;verticalLabelPosition=bottom;verticalAlign=top;align=center;html=1;fontSize=12;fontStyle=0;aspect=fixed;pointerEvents=1;shape=mxgraph.aws4.rds_postgresql_instance;rounded=0;shadow=0;glass=0;strokeWidth=3;" parent="1" vertex="1">
          <mxGeometry x="1220" y="647.5" width="91" height="91" as="geometry" />
        </mxCell>
        <mxCell id="qD9jmZiLQEbPsk8hKH5Y-312" value="" style="points=[];aspect=fixed;html=1;align=center;shadow=0;dashed=0;image;image=img/lib/allied_telesis/security/DVS_Surveillance_Monitor.svg;strokeWidth=0;fontSize=16;" parent="1" vertex="1">
          <mxGeometry x="1560" y="832.5" width="52.5" height="75" as="geometry" />
        </mxCell>
        <mxCell id="qD9jmZiLQEbPsk8hKH5Y-313" value="" style="sketch=0;aspect=fixed;pointerEvents=1;shadow=0;dashed=0;html=1;strokeColor=none;labelPosition=center;verticalLabelPosition=bottom;verticalAlign=top;align=center;fillColor=#00188D;shape=mxgraph.mscae.enterprise.performance_monitor;strokeWidth=0;fontSize=16;" parent="1" vertex="1">
          <mxGeometry x="1440" y="846" width="80.56" height="58" as="geometry" />
        </mxCell>
        <mxCell id="qD9jmZiLQEbPsk8hKH5Y-315" value="" style="shape=image;html=1;verticalAlign=top;verticalLabelPosition=bottom;labelBackgroundColor=#ffffff;imageAspect=0;aspect=fixed;image=https://cdn1.iconfinder.com/data/icons/material-core/23/https-128.png" parent="1" vertex="1">
          <mxGeometry x="815" y="1040" width="25" height="25" as="geometry" />
        </mxCell>
        <mxCell id="qD9jmZiLQEbPsk8hKH5Y-316" value="" style="edgeStyle=orthogonalEdgeStyle;rounded=0;orthogonalLoop=1;jettySize=auto;html=1;exitX=0.5;exitY=1;exitDx=0;exitDy=0;strokeWidth=2;fontSize=14;entryX=0.89;entryY=-0.004;entryDx=0;entryDy=0;entryPerimeter=0;endArrow=none;" parent="1" source="qD9jmZiLQEbPsk8hKH5Y-112" target="qD9jmZiLQEbPsk8hKH5Y-315" edge="1">
          <mxGeometry relative="1" as="geometry">
            <mxPoint x="595" y="1188.92" as="targetPoint" />
            <mxPoint x="1386" y="930" as="sourcePoint" />
          </mxGeometry>
        </mxCell>
        <mxCell id="qD9jmZiLQEbPsk8hKH5Y-317" value="&lt;font style=&quot;font-size: 18px;&quot;&gt;High Scalable monitoring&amp;nbsp; systems such as grafana , lenses , ELK&lt;/font&gt;" style="shape=note;whiteSpace=wrap;html=1;backgroundOutline=1;darkOpacity=0.05;rounded=1;shadow=0;glass=0;sketch=0;strokeColor=#d6b656;strokeWidth=3;fontSize=14;fillColor=#fff2cc;" parent="1" vertex="1">
          <mxGeometry x="1350" y="1005" width="312" height="100" as="geometry" />
        </mxCell>
        <mxCell id="qD9jmZiLQEbPsk8hKH5Y-327" style="edgeStyle=orthogonalEdgeStyle;rounded=0;orthogonalLoop=1;jettySize=auto;html=1;exitX=0.5;exitY=1;exitDx=0;exitDy=0;entryX=0.404;entryY=1.015;entryDx=0;entryDy=0;entryPerimeter=0;strokeWidth=2;fontSize=18;" parent="1" source="qD9jmZiLQEbPsk8hKH5Y-228" target="qD9jmZiLQEbPsk8hKH5Y-223" edge="1">
          <mxGeometry relative="1" as="geometry" />
        </mxCell>
        <mxCell id="qD9jmZiLQEbPsk8hKH5Y-328" style="edgeStyle=orthogonalEdgeStyle;rounded=0;orthogonalLoop=1;jettySize=auto;html=1;exitX=0.5;exitY=0;exitDx=0;exitDy=0;strokeWidth=2;fontSize=18;" parent="1" source="qD9jmZiLQEbPsk8hKH5Y-228" edge="1">
          <mxGeometry relative="1" as="geometry">
            <mxPoint x="1070" y="1190" as="targetPoint" />
            <Array as="points">
              <mxPoint x="845" y="1170" />
              <mxPoint x="1070" y="1170" />
            </Array>
          </mxGeometry>
        </mxCell>
        <mxCell id="qD9jmZiLQEbPsk8hKH5Y-228" value="" style="shape=image;html=1;verticalLabelPosition=bottom;verticalAlign=top;imageAspect=0;image=img/clipart/Gear_128x128.png;rounded=0;shadow=0;glass=0;dashed=1;sketch=0;strokeColor=#000000;strokeWidth=3;fontSize=18;fillColor=#F8CECC;gradientColor=none;" parent="1" vertex="1">
          <mxGeometry x="820" y="1271.75" width="50" height="60" as="geometry" />
        </mxCell>
        <mxCell id="qD9jmZiLQEbPsk8hKH5Y-319" value="" style="edgeStyle=orthogonalEdgeStyle;rounded=0;orthogonalLoop=1;jettySize=auto;html=1;exitX=1;exitY=0.75;exitDx=0;exitDy=0;entryX=0;entryY=0.5;entryDx=0;entryDy=0;strokeWidth=2;fontSize=18;endArrow=none;" parent="1" source="qD9jmZiLQEbPsk8hKH5Y-58" target="qD9jmZiLQEbPsk8hKH5Y-228" edge="1">
          <mxGeometry relative="1" as="geometry">
            <mxPoint x="650" y="1392.5" as="sourcePoint" />
            <mxPoint x="990" y="1316" as="targetPoint" />
          </mxGeometry>
        </mxCell>
        <mxCell id="qD9jmZiLQEbPsk8hKH5Y-322" value="This is CQRS Design where we do lots read and right and make sure Orachitraction highly avilable" style="shape=note;strokeWidth=2;fontSize=14;size=20;whiteSpace=wrap;html=1;fillColor=#e1d5e7;strokeColor=#9673a6;rounded=0;shadow=0;glass=0;sketch=0;" parent="1" vertex="1">
          <mxGeometry x="169.44" y="1990" width="315.21" height="80" as="geometry" />
        </mxCell>
        <mxCell id="qD9jmZiLQEbPsk8hKH5Y-345" style="edgeStyle=orthogonalEdgeStyle;rounded=0;orthogonalLoop=1;jettySize=auto;html=1;exitX=1;exitY=0.5;exitDx=0;exitDy=0;strokeWidth=2;fontSize=18;entryX=1;entryY=0.5;entryDx=0;entryDy=0;" parent="1" source="qD9jmZiLQEbPsk8hKH5Y-323" target="qD9jmZiLQEbPsk8hKH5Y-223" edge="1">
          <mxGeometry relative="1" as="geometry">
            <mxPoint x="1200" y="1330" as="targetPoint" />
            <Array as="points">
              <mxPoint x="1190" y="1230" />
              <mxPoint x="1190" y="1324" />
            </Array>
          </mxGeometry>
        </mxCell>
        <mxCell id="qD9jmZiLQEbPsk8hKH5Y-323" value="" style="shape=mxgraph.gcp2.doubleRect;strokeColor=#666666;shadow=1;strokeWidth=1;rounded=1;absoluteArcSize=1;arcSize=2;glass=0;sketch=0;fontSize=14;fillColor=#f5f5f5;fontColor=#333333;" parent="1" vertex="1">
          <mxGeometry x="989.9999999999999" y="1196" width="178" height="68" as="geometry" />
        </mxCell>
        <mxCell id="qD9jmZiLQEbPsk8hKH5Y-324" value="&lt;font style=&quot;font-size: 16px;&quot; color=&quot;#000000&quot;&gt;Flink&amp;nbsp;&lt;br&gt;&lt;/font&gt;&lt;font style=&quot;font-size: 18px;&quot;&gt;Manager&lt;/font&gt;" style="editableCssRules=.*;html=1;fontColor=#999999;shape=image;verticalLabelPosition=middle;labelBackgroundColor=#ffffff;verticalAlign=middle;labelPosition=right;align=left;spacingLeft=20;part=1;points=[];imageAspect=0;image=data:image/svg+xml,PHN2ZyB4bWxucz0iaHR0cDovL3d3dy53My5vcmcvMjAwMC9zdmciIHhtbG5zOnY9Imh0dHBzOi8vdmVjdGEuaW8vbmFubyIgd2lkdGg9IjE4LjMwMDAwMTE0NDQwOTE4IiBoZWlnaHQ9IjE5LjgyNjUwNTY2MTAxMDc0MiIgdmlld0JveD0iLTguNzkxNTE5NjkwMDIxMjMyZS04IDAgMTguMzAwMDAxMTQ0NDA5MTggMTkuODI2NTA1NjYxMDEwNzQyIj4mI3hhOwk8c3R5bGUgdHlwZT0idGV4dC9jc3MiPiYjeGE7CS5zdDB7ZmlsbDojNDI4NWY0fSYjeGE7CS5zdDF7ZmlsbDojYWVjYmZhfSYjeGE7CS5zdDJ7ZmlsbDojNjY5ZGY2fSYjeGE7CTwvc3R5bGU+JiN4YTsJPHBhdGggY2xhc3M9InN0MCIgZD0iTTMuMDEgMTguNDlhMS41MSAxLjUxIDAgMCAxLTMgMGgwdi00LjI4YTEuNTEgMS41MSAwIDEgMSAzIDB6bTUuMTMgMGExLjUxIDEuNTEgMCAwIDEtMyAwaDB2LTQuMjhhMS41MSAxLjUxIDAgMCAxIDMgMHptNS4wNiAwYTEuNTEgMS41MSAwIDAgMS0zIDB2LTQuMjhhMS41MSAxLjUxIDAgMCAxIDMgMHptNS4wOSAwYTEuNTEgMS41MSAwIDAgMS0zIDB2LTQuMjhhMS41MSAxLjUxIDAgMSAxIDMgMHoiLz4mI3hhOwk8Y2lyY2xlIGNsYXNzPSJzdDEiIGN4PSI2LjU5IiBjeT0iOS45NyIgcj0iMS41MSIvPiYjeGE7CTxjaXJjbGUgY2xhc3M9InN0MiIgY3g9IjExLjY5IiBjeT0iOS45NyIgcj0iMS41MSIvPiYjeGE7CTxjaXJjbGUgY2xhc3M9InN0MSIgY3g9IjExLjY5IiBjeT0iNS43NCIgcj0iMS41MSIvPiYjeGE7CTxnIGNsYXNzPSJzdDIiPiYjeGE7CQk8Y2lyY2xlIGN4PSIxNi43OCIgY3k9IjkuOTciIHI9IjEuNTEiLz4mI3hhOwkJPGNpcmNsZSBjeD0iMTYuNzgiIGN5PSI1Ljc0IiByPSIxLjUxIi8+JiN4YTsJPC9nPiYjeGE7CTxjaXJjbGUgY2xhc3M9InN0MSIgY3g9IjE2Ljc4IiBjeT0iMS41MSIgcj0iMS41MSIvPiYjeGE7PC9zdmc+;rounded=0;shadow=0;glass=0;sketch=0;strokeColor=#000000;strokeWidth=3;fontSize=14;fillColor=#F8CECC;gradientColor=none;" parent="qD9jmZiLQEbPsk8hKH5Y-323" vertex="1">
          <mxGeometry width="30" height="30" relative="1" as="geometry">
            <mxPoint x="15" y="15" as="offset" />
          </mxGeometry>
        </mxCell>
        <mxCell id="qD9jmZiLQEbPsk8hKH5Y-329" value="" style="aspect=fixed;html=1;points=[];align=center;image;fontSize=12;image=img/lib/azure2/databases/Cache_Redis.svg;rounded=0;shadow=0;glass=0;sketch=0;strokeColor=#000000;strokeWidth=3;fillColor=#F8CECC;gradientColor=none;" parent="1" vertex="1">
          <mxGeometry x="926" y="670" width="76.31" height="62" as="geometry" />
        </mxCell>
        <mxCell id="qD9jmZiLQEbPsk8hKH5Y-330" value="MemCache" style="text;html=1;align=center;verticalAlign=middle;resizable=0;points=[];autosize=1;strokeColor=none;fillColor=none;fontSize=18;" parent="1" vertex="1">
          <mxGeometry x="910" y="630" width="120" height="40" as="geometry" />
        </mxCell>
        <mxCell id="qD9jmZiLQEbPsk8hKH5Y-338" style="edgeStyle=orthogonalEdgeStyle;rounded=0;orthogonalLoop=1;jettySize=auto;html=1;exitX=0;exitY=0.5;exitDx=0;exitDy=0;strokeWidth=2;fontSize=18;startArrow=none;" parent="1" source="qD9jmZiLQEbPsk8hKH5Y-337" edge="1">
          <mxGeometry relative="1" as="geometry">
            <mxPoint x="1380" y="620" as="targetPoint" />
          </mxGeometry>
        </mxCell>
        <mxCell id="qD9jmZiLQEbPsk8hKH5Y-339" style="edgeStyle=orthogonalEdgeStyle;rounded=0;orthogonalLoop=1;jettySize=auto;html=1;exitX=0.5;exitY=1;exitDx=0;exitDy=0;entryX=0.887;entryY=0;entryDx=0;entryDy=0;entryPerimeter=0;strokeWidth=2;fontSize=18;" parent="1" source="qD9jmZiLQEbPsk8hKH5Y-335" target="qD9jmZiLQEbPsk8hKH5Y-112" edge="1">
          <mxGeometry relative="1" as="geometry" />
        </mxCell>
        <mxCell id="qD9jmZiLQEbPsk8hKH5Y-335" value="" style="swimlane;startSize=0;rounded=0;shadow=0;glass=0;sketch=0;strokeColor=#d6b656;strokeWidth=3;fontSize=18;fillColor=#fff2cc;" parent="1" vertex="1">
          <mxGeometry x="1654" y="160" width="140" height="285" as="geometry" />
        </mxCell>
        <mxCell id="qD9jmZiLQEbPsk8hKH5Y-331" value="" style="aspect=fixed;html=1;points=[];align=center;image;fontSize=12;image=img/lib/azure2/databases/Data_Factory.svg;rounded=0;shadow=0;glass=0;sketch=0;strokeColor=#000000;strokeWidth=3;fillColor=#F8CECC;gradientColor=none;" parent="qD9jmZiLQEbPsk8hKH5Y-335" vertex="1">
          <mxGeometry x="42" y="10" width="68" height="68" as="geometry" />
        </mxCell>
        <mxCell id="qD9jmZiLQEbPsk8hKH5Y-333" value="" style="aspect=fixed;html=1;points=[];align=center;image;fontSize=12;image=img/lib/azure2/databases/Data_Factory.svg;rounded=0;shadow=0;glass=0;sketch=0;strokeColor=#000000;strokeWidth=3;fillColor=#F8CECC;gradientColor=none;" parent="qD9jmZiLQEbPsk8hKH5Y-335" vertex="1">
          <mxGeometry x="42" y="108.5" width="68" height="68" as="geometry" />
        </mxCell>
        <mxCell id="qD9jmZiLQEbPsk8hKH5Y-332" value="" style="aspect=fixed;html=1;points=[];align=center;image;fontSize=12;image=img/lib/azure2/databases/Data_Factory.svg;rounded=0;shadow=0;glass=0;sketch=0;strokeColor=#000000;strokeWidth=3;fillColor=#F8CECC;gradientColor=none;" parent="qD9jmZiLQEbPsk8hKH5Y-335" vertex="1">
          <mxGeometry x="42" y="200" width="68" height="68" as="geometry" />
        </mxCell>
        <mxCell id="qD9jmZiLQEbPsk8hKH5Y-340" value="" style="points=[];aspect=fixed;html=1;align=center;shadow=0;dashed=0;image;image=img/lib/allied_telesis/security/DVS_Surveillance_Monitor.svg;strokeWidth=0;fontSize=16;" parent="1" vertex="1">
          <mxGeometry x="1690" width="56" height="80" as="geometry" />
        </mxCell>
        <mxCell id="qD9jmZiLQEbPsk8hKH5Y-343" style="edgeStyle=orthogonalEdgeStyle;rounded=0;orthogonalLoop=1;jettySize=auto;html=1;exitX=0;exitY=0.25;exitDx=0;exitDy=0;strokeWidth=2;fontSize=18;" parent="1" source="qD9jmZiLQEbPsk8hKH5Y-341" target="qD9jmZiLQEbPsk8hKH5Y-340" edge="1">
          <mxGeometry relative="1" as="geometry" />
        </mxCell>
        <mxCell id="qD9jmZiLQEbPsk8hKH5Y-341" value="Azure Synopsis" style="rounded=1;whiteSpace=wrap;html=1;shadow=0;glass=0;sketch=0;strokeColor=#d79b00;strokeWidth=3;fontSize=18;fillColor=#ffe6cc;" parent="1" vertex="1">
          <mxGeometry x="1770" y="-45" width="190" height="35" as="geometry" />
        </mxCell>
        <mxCell id="qD9jmZiLQEbPsk8hKH5Y-342" style="edgeStyle=orthogonalEdgeStyle;rounded=0;orthogonalLoop=1;jettySize=auto;html=1;entryX=0.714;entryY=0.875;entryDx=0;entryDy=0;entryPerimeter=0;strokeWidth=2;fontSize=18;" parent="1" source="qD9jmZiLQEbPsk8hKH5Y-331" target="qD9jmZiLQEbPsk8hKH5Y-340" edge="1">
          <mxGeometry relative="1" as="geometry" />
        </mxCell>
        <mxCell id="qD9jmZiLQEbPsk8hKH5Y-337" value="Dataware House" style="shape=note;strokeWidth=2;fontSize=14;size=20;whiteSpace=wrap;html=1;fillColor=#f8cecc;strokeColor=#b85450;rounded=0;shadow=0;glass=0;sketch=0;" parent="1" vertex="1">
          <mxGeometry x="1440" y="281.75" width="160" height="41.5" as="geometry" />
        </mxCell>
        <mxCell id="qD9jmZiLQEbPsk8hKH5Y-344" value="" style="edgeStyle=orthogonalEdgeStyle;rounded=0;orthogonalLoop=1;jettySize=auto;html=1;exitX=0;exitY=0.5;exitDx=0;exitDy=0;strokeWidth=2;fontSize=18;endArrow=none;" parent="1" source="qD9jmZiLQEbPsk8hKH5Y-335" target="qD9jmZiLQEbPsk8hKH5Y-337" edge="1">
          <mxGeometry relative="1" as="geometry">
            <mxPoint x="1380" y="620" as="targetPoint" />
            <mxPoint x="1654" y="302.5" as="sourcePoint" />
          </mxGeometry>
        </mxCell>
        <mxCell id="0YC_CVqzoOfl5CDFWD0c-1" value="" style="shape=image;html=1;verticalAlign=top;verticalLabelPosition=bottom;labelBackgroundColor=#ffffff;imageAspect=0;aspect=fixed;image=https://cdn2.iconfinder.com/data/icons/electronic-13/480/1-electronic-chipset-icon-2-128.png;rounded=0;shadow=0;glass=0;sketch=0;strokeColor=#000000;strokeWidth=3;fontSize=18;fillColor=#F8CECC;gradientColor=none;" vertex="1" parent="1">
          <mxGeometry x="142.79" y="1450.5" width="62.9" height="62.9" as="geometry" />
        </mxCell>
        <mxCell id="0YC_CVqzoOfl5CDFWD0c-2" value="" style="shape=image;html=1;verticalAlign=top;verticalLabelPosition=bottom;labelBackgroundColor=#ffffff;imageAspect=0;aspect=fixed;image=https://cdn2.iconfinder.com/data/icons/electronic-13/480/1-electronic-chipset-icon-2-128.png;rounded=0;shadow=0;glass=0;sketch=0;strokeColor=#000000;strokeWidth=3;fontSize=18;fillColor=#F8CECC;gradientColor=none;" vertex="1" parent="1">
          <mxGeometry x="593.29" y="1452.2" width="59.5" height="59.5" as="geometry" />
        </mxCell>
        <mxCell id="0YC_CVqzoOfl5CDFWD0c-3" value="" style="shape=image;html=1;verticalAlign=top;verticalLabelPosition=bottom;labelBackgroundColor=#ffffff;imageAspect=0;aspect=fixed;image=https://cdn2.iconfinder.com/data/icons/electronic-13/480/1-electronic-chipset-icon-2-128.png;rounded=0;shadow=0;glass=0;sketch=0;strokeColor=#000000;strokeWidth=3;fontSize=18;fillColor=#F8CECC;gradientColor=none;" vertex="1" parent="1">
          <mxGeometry x="142.79" y="942" width="58" height="58" as="geometry" />
        </mxCell>
        <mxCell id="0YC_CVqzoOfl5CDFWD0c-4" value="" style="shape=image;html=1;verticalAlign=top;verticalLabelPosition=bottom;labelBackgroundColor=#ffffff;imageAspect=0;aspect=fixed;image=https://cdn2.iconfinder.com/data/icons/electronic-13/480/1-electronic-chipset-icon-2-128.png;rounded=0;shadow=0;glass=0;sketch=0;strokeColor=#000000;strokeWidth=3;fontSize=18;fillColor=#F8CECC;gradientColor=none;" vertex="1" parent="1">
          <mxGeometry x="584.79" y="942" width="58" height="58" as="geometry" />
        </mxCell>
        <mxCell id="0YC_CVqzoOfl5CDFWD0c-5" value="" style="shape=image;html=1;verticalAlign=top;verticalLabelPosition=bottom;labelBackgroundColor=#ffffff;imageAspect=0;aspect=fixed;image=https://cdn2.iconfinder.com/data/icons/electronic-13/480/1-electronic-chipset-icon-2-128.png;rounded=0;shadow=0;glass=0;sketch=0;strokeColor=#000000;strokeWidth=3;fontSize=18;fillColor=#F8CECC;gradientColor=none;" vertex="1" parent="1">
          <mxGeometry x="-610" y="-139" width="59" height="59" as="geometry" />
        </mxCell>
        <mxCell id="0YC_CVqzoOfl5CDFWD0c-6" value="" style="endArrow=classic;html=1;rounded=0;strokeWidth=2;fontSize=18;" edge="1" parent="1">
          <mxGeometry width="50" height="50" relative="1" as="geometry">
            <mxPoint x="-540" y="-110" as="sourcePoint" />
            <mxPoint x="-450" y="-110" as="targetPoint" />
          </mxGeometry>
        </mxCell>
        <mxCell id="0YC_CVqzoOfl5CDFWD0c-7" value="DownStream System Adapter" style="text;html=1;align=center;verticalAlign=middle;resizable=0;points=[];autosize=1;strokeColor=none;fillColor=none;fontSize=18;" vertex="1" parent="1">
          <mxGeometry x="-440" y="-135" width="260" height="40" as="geometry" />
        </mxCell>
        <mxCell id="0YC_CVqzoOfl5CDFWD0c-8" value="" style="shape=image;html=1;verticalAlign=top;verticalLabelPosition=bottom;labelBackgroundColor=#ffffff;imageAspect=0;aspect=fixed;image=https://cdn1.iconfinder.com/data/icons/material-core/23/https-128.png" vertex="1" parent="1">
          <mxGeometry x="-600" y="-60" width="34.5" height="34.5" as="geometry" />
        </mxCell>
        <mxCell id="0YC_CVqzoOfl5CDFWD0c-9" value="" style="endArrow=classic;html=1;rounded=0;strokeWidth=2;fontSize=18;" edge="1" parent="1">
          <mxGeometry width="50" height="50" relative="1" as="geometry">
            <mxPoint x="-540" y="-45.83" as="sourcePoint" />
            <mxPoint x="-450" y="-45.83" as="targetPoint" />
          </mxGeometry>
        </mxCell>
        <mxCell id="0YC_CVqzoOfl5CDFWD0c-10" value="Trusted certificate for https" style="text;html=1;align=center;verticalAlign=middle;resizable=0;points=[];autosize=1;strokeColor=none;fillColor=none;fontSize=18;" vertex="1" parent="1">
          <mxGeometry x="-440" y="-65.5" width="240" height="40" as="geometry" />
        </mxCell>
        <mxCell id="0YC_CVqzoOfl5CDFWD0c-11" value="" style="aspect=fixed;perimeter=ellipsePerimeter;html=1;align=center;shadow=0;dashed=0;fontColor=#4277BB;labelBackgroundColor=#ffffff;fontSize=12;spacingTop=3;image;image=img/lib/ibm/vpc/PublicGateway.svg;" vertex="1" parent="1">
          <mxGeometry x="-606.5" width="40" height="40" as="geometry" />
        </mxCell>
        <mxCell id="0YC_CVqzoOfl5CDFWD0c-12" value="" style="endArrow=classic;html=1;rounded=0;strokeWidth=2;fontSize=18;" edge="1" parent="1">
          <mxGeometry width="50" height="50" relative="1" as="geometry">
            <mxPoint x="-540" y="19.170000000000073" as="sourcePoint" />
            <mxPoint x="-450" y="19.170000000000073" as="targetPoint" />
          </mxGeometry>
        </mxCell>
        <mxCell id="0YC_CVqzoOfl5CDFWD0c-13" value="Azure vNet Connector" style="text;html=1;align=center;verticalAlign=middle;resizable=0;points=[];autosize=1;strokeColor=none;fillColor=none;fontSize=18;rounded=0;shadow=0;glass=0;sketch=0;strokeWidth=3;" vertex="1" parent="1">
          <mxGeometry x="-435" width="200" height="40" as="geometry" />
        </mxCell>
        <mxCell id="0YC_CVqzoOfl5CDFWD0c-14" value="" style="sketch=0;outlineConnect=0;fontColor=#232F3E;gradientColor=none;fillColor=#B0084D;strokeColor=none;dashed=0;verticalLabelPosition=bottom;verticalAlign=top;align=center;html=1;fontSize=12;fontStyle=0;aspect=fixed;pointerEvents=1;shape=mxgraph.aws4.queue;" vertex="1" parent="1">
          <mxGeometry x="-620" y="70" width="54.5" height="32.84" as="geometry" />
        </mxCell>
        <mxCell id="0YC_CVqzoOfl5CDFWD0c-15" value="" style="endArrow=classic;html=1;rounded=0;strokeWidth=2;fontSize=18;" edge="1" parent="1">
          <mxGeometry width="50" height="50" relative="1" as="geometry">
            <mxPoint x="-540" y="80.00000000000007" as="sourcePoint" />
            <mxPoint x="-450" y="80.00000000000007" as="targetPoint" />
          </mxGeometry>
        </mxCell>
        <mxCell id="0YC_CVqzoOfl5CDFWD0c-16" value="Messaging stream" style="text;html=1;align=center;verticalAlign=middle;resizable=0;points=[];autosize=1;strokeColor=none;fillColor=none;fontSize=18;" vertex="1" parent="1">
          <mxGeometry x="-440" y="60" width="170" height="40" as="geometry" />
        </mxCell>
        <mxCell id="0YC_CVqzoOfl5CDFWD0c-17" value="" style="shape=image;html=1;verticalLabelPosition=bottom;verticalAlign=top;imageAspect=0;image=img/clipart/Gear_128x128.png;strokeWidth=3;fontSize=16;" vertex="1" parent="1">
          <mxGeometry x="-605.5" y="137.5" width="40" height="41" as="geometry" />
        </mxCell>
        <mxCell id="0YC_CVqzoOfl5CDFWD0c-18" value="" style="endArrow=classic;html=1;rounded=0;strokeWidth=2;fontSize=18;" edge="1" parent="1">
          <mxGeometry width="50" height="50" relative="1" as="geometry">
            <mxPoint x="-540" y="150" as="sourcePoint" />
            <mxPoint x="-450" y="150" as="targetPoint" />
          </mxGeometry>
        </mxCell>
        <mxCell id="0YC_CVqzoOfl5CDFWD0c-19" value="External component" style="text;html=1;align=center;verticalAlign=middle;resizable=0;points=[];autosize=1;strokeColor=none;fillColor=none;fontSize=18;" vertex="1" parent="1">
          <mxGeometry x="-435" y="130" width="180" height="40" as="geometry" />
        </mxCell>
        <mxCell id="0YC_CVqzoOfl5CDFWD0c-20" value="" style="label;whiteSpace=wrap;html=1;align=center;verticalAlign=bottom;spacingLeft=0;spacingBottom=4;imageAlign=center;imageVerticalAlign=top;image=img/clipart/Gear_128x128.png;rounded=0;shadow=0;glass=0;sketch=0;strokeColor=#6c8ebf;strokeWidth=3;fontSize=18;fillColor=#dae8fc;" vertex="1" parent="1">
          <mxGeometry x="-620" y="200" width="53.5" height="50" as="geometry" />
        </mxCell>
        <mxCell id="0YC_CVqzoOfl5CDFWD0c-21" value="" style="endArrow=classic;html=1;rounded=0;strokeWidth=2;fontSize=18;" edge="1" parent="1">
          <mxGeometry width="50" height="50" relative="1" as="geometry">
            <mxPoint x="-540" y="216.67000000000002" as="sourcePoint" />
            <mxPoint x="-450" y="216.67000000000002" as="targetPoint" />
          </mxGeometry>
        </mxCell>
        <mxCell id="0YC_CVqzoOfl5CDFWD0c-22" value="Zookeeper" style="text;html=1;align=center;verticalAlign=middle;resizable=0;points=[];autosize=1;strokeColor=none;fillColor=none;fontSize=18;" vertex="1" parent="1">
          <mxGeometry x="-435" y="197.5" width="110" height="40" as="geometry" />
        </mxCell>
        <mxCell id="0YC_CVqzoOfl5CDFWD0c-26" style="edgeStyle=orthogonalEdgeStyle;rounded=0;orthogonalLoop=1;jettySize=auto;html=1;exitX=0.5;exitY=1;exitDx=0;exitDy=0;exitPerimeter=0;strokeWidth=2;fontSize=15;" edge="1" parent="1" source="0YC_CVqzoOfl5CDFWD0c-23" target="0YC_CVqzoOfl5CDFWD0c-25">
          <mxGeometry relative="1" as="geometry" />
        </mxCell>
        <mxCell id="0YC_CVqzoOfl5CDFWD0c-23" value="&lt;font style=&quot;font-size: 15px;&quot;&gt;Most of integration systems are payment gateway , Insurance, Risk , Capital Expenditure will run in these stream application&amp;nbsp;&amp;nbsp;&lt;/font&gt;" style="shape=note;strokeWidth=2;fontSize=14;size=20;whiteSpace=wrap;html=1;fillColor=#fff2cc;strokeColor=#d6b656;fontColor=#666600;" vertex="1" parent="1">
          <mxGeometry x="-520" y="1479.5" width="340" height="80" as="geometry" />
        </mxCell>
        <mxCell id="0YC_CVqzoOfl5CDFWD0c-28" style="edgeStyle=orthogonalEdgeStyle;rounded=0;orthogonalLoop=1;jettySize=auto;html=1;exitX=0.5;exitY=1;exitDx=0;exitDy=0;exitPerimeter=0;entryX=0.494;entryY=0.182;entryDx=0;entryDy=0;entryPerimeter=0;strokeWidth=2;fontSize=15;" edge="1" parent="1" source="0YC_CVqzoOfl5CDFWD0c-25" target="0YC_CVqzoOfl5CDFWD0c-27">
          <mxGeometry relative="1" as="geometry" />
        </mxCell>
        <mxCell id="0YC_CVqzoOfl5CDFWD0c-25" value="&lt;font style=&quot;font-size: 15px;&quot;&gt;Example if Org or Entity made payment , In real time quickly update in other subsystem and reflect in main account of org/entity. It&#39;s done through newly added Hyperloop system.&lt;/font&gt;" style="shape=note;strokeWidth=2;fontSize=14;size=20;whiteSpace=wrap;html=1;fillColor=#fff2cc;strokeColor=#d6b656;fontColor=#666600;" vertex="1" parent="1">
          <mxGeometry x="-520" y="1600" width="340" height="110" as="geometry" />
        </mxCell>
        <mxCell id="0YC_CVqzoOfl5CDFWD0c-27" value="Example : Capital Expenditure for any org/entity such as depreciate value, deferred income tax, net cash flow etc., will available in real time system&amp;nbsp;" style="shape=note;strokeWidth=2;fontSize=14;size=20;whiteSpace=wrap;html=1;fillColor=#fff2cc;strokeColor=#d6b656;fontColor=#666600;" vertex="1" parent="1">
          <mxGeometry x="-518" y="1760" width="340" height="110" as="geometry" />
        </mxCell>
        <mxCell id="0YC_CVqzoOfl5CDFWD0c-34" style="edgeStyle=orthogonalEdgeStyle;rounded=0;orthogonalLoop=1;jettySize=auto;html=1;exitX=1;exitY=0.5;exitDx=0;exitDy=0;entryX=0.228;entryY=1;entryDx=0;entryDy=0;entryPerimeter=0;strokeWidth=2;fontSize=15;" edge="1" parent="1" source="0YC_CVqzoOfl5CDFWD0c-29" target="qD9jmZiLQEbPsk8hKH5Y-99">
          <mxGeometry relative="1" as="geometry" />
        </mxCell>
        <mxCell id="0YC_CVqzoOfl5CDFWD0c-29" value="&lt;font style=&quot;font-size: 15px;&quot;&gt;Service Now and IVR&lt;/font&gt;" style="label;whiteSpace=wrap;html=1;image=img/clipart/Gear_128x128.png;strokeWidth=2;" vertex="1" parent="1">
          <mxGeometry x="-610" y="780" width="247" height="60" as="geometry" />
        </mxCell>
        <mxCell id="0YC_CVqzoOfl5CDFWD0c-33" style="edgeStyle=orthogonalEdgeStyle;rounded=0;orthogonalLoop=1;jettySize=auto;html=1;exitX=1;exitY=0.5;exitDx=0;exitDy=0;entryX=0.075;entryY=1;entryDx=0;entryDy=0;entryPerimeter=0;strokeWidth=2;fontSize=15;" edge="1" parent="1" source="0YC_CVqzoOfl5CDFWD0c-32" target="qD9jmZiLQEbPsk8hKH5Y-99">
          <mxGeometry relative="1" as="geometry" />
        </mxCell>
        <mxCell id="0YC_CVqzoOfl5CDFWD0c-32" value="&lt;font style=&quot;font-size: 15px;&quot;&gt;Backoffice and Other BPM System&lt;/font&gt;" style="label;whiteSpace=wrap;html=1;image=img/clipart/Gear_128x128.png;strokeWidth=2;" vertex="1" parent="1">
          <mxGeometry x="-610" y="672" width="247" height="60" as="geometry" />
        </mxCell>
        <mxCell id="qD9jmZiLQEbPsk8hKH5Y-99" value="Interface legacy Application&amp;nbsp;" style="shape=rect;dashed=0;shadow=0;html=1;whiteSpace=wrap;direction=south;horizontal=0;strokeWidth=3;fontSize=16;" parent="1" vertex="1">
          <mxGeometry x="-235" y="685" width="30" height="700" as="geometry" />
        </mxCell>
        <mxCell id="0YC_CVqzoOfl5CDFWD0c-36" value="" style="edgeStyle=orthogonalEdgeStyle;rounded=0;orthogonalLoop=1;jettySize=auto;html=1;strokeWidth=2;endArrow=none;" edge="1" parent="1" source="qD9jmZiLQEbPsk8hKH5Y-72" target="qD9jmZiLQEbPsk8hKH5Y-99">
          <mxGeometry relative="1" as="geometry">
            <mxPoint x="-340" y="1246.333333333333" as="sourcePoint" />
            <mxPoint x="-83" y="1296.8333333333335" as="targetPoint" />
          </mxGeometry>
        </mxCell>
        <mxCell id="0YC_CVqzoOfl5CDFWD0c-40" style="edgeStyle=orthogonalEdgeStyle;rounded=0;orthogonalLoop=1;jettySize=auto;html=1;exitX=0;exitY=0.5;exitDx=0;exitDy=0;exitPerimeter=0;strokeWidth=2;fontSize=15;" edge="1" parent="1" source="0YC_CVqzoOfl5CDFWD0c-38" target="0YC_CVqzoOfl5CDFWD0c-39">
          <mxGeometry relative="1" as="geometry" />
        </mxCell>
        <mxCell id="0YC_CVqzoOfl5CDFWD0c-41" style="edgeStyle=orthogonalEdgeStyle;rounded=0;orthogonalLoop=1;jettySize=auto;html=1;exitX=0.5;exitY=1;exitDx=0;exitDy=0;exitPerimeter=0;entryX=0.071;entryY=0;entryDx=0;entryDy=0;entryPerimeter=0;strokeWidth=2;fontSize=15;" edge="1" parent="1" source="0YC_CVqzoOfl5CDFWD0c-38" target="qD9jmZiLQEbPsk8hKH5Y-31">
          <mxGeometry relative="1" as="geometry" />
        </mxCell>
        <mxCell id="0YC_CVqzoOfl5CDFWD0c-38" value="" style="verticalLabelPosition=bottom;html=1;verticalAlign=top;align=center;strokeColor=none;fillColor=#00BEF2;shape=mxgraph.azure.storage_blob;rounded=0;shadow=0;glass=0;sketch=0;strokeWidth=3;fontSize=15;" vertex="1" parent="1">
          <mxGeometry x="150" y="572" width="63.21" height="58" as="geometry" />
        </mxCell>
        <mxCell id="0YC_CVqzoOfl5CDFWD0c-39" value="&lt;font style=&quot;font-size: 14px;&quot;&gt;Legacy storage WASABI will going decommission and replace with Blob storage for high performance storage&lt;/font&gt;" style="shape=note;size=20;whiteSpace=wrap;html=1;fillColor=#fff2cc;strokeColor=#d6b656;" vertex="1" parent="1">
          <mxGeometry x="-434.99999999999994" y="485" width="240" height="100" as="geometry" />
        </mxCell>
        <mxCell id="0YC_CVqzoOfl5CDFWD0c-42" value="Blob Storage" style="rounded=1;whiteSpace=wrap;html=1;shadow=0;glass=0;sketch=0;strokeColor=#b85450;strokeWidth=2;fontSize=15;fillColor=#f8cecc;" vertex="1" parent="1">
          <mxGeometry x="121.6" y="647.5" width="120" height="32.5" as="geometry" />
        </mxCell>
      </root>
    </mxGraphModel>
  </diagram>
</mxfile>
